<?xml version='1.0' encoding='utf-8'?>
<svg xmlns="http://www.w3.org/2000/svg" version="1.1" id="Layer_1" x="0px" y="0px" viewBox="0 0 5000 3038.081" enable-background="new 0 0 5000 3038.081"> <path d="M516.169,2012.951c1.297,1.573,2.567,3.29,3.841,5.012c-1.309-1.287-2.552-2.526-3.841-3.799V2012.951z"/> <path d="M5000,1855.449l-19.19,1.785v-9.362l19.19-1.788v-260.246l-37.543,3.76l-25.157,1.757l-26.591-24.49l89.291-8.441v-15.911 l-58.042,5.486l1.333-99.577L5000,1494.79v-10.232l-21.529-17.603l2.216-1.722l-9.38-12.068l3.494-2.597l-30.978-41.712 l1.313-98.122l54.864,39.158v-9.726l-54.735-39.066l0.623-46.512l54.112,39.393v-9.794l-53.982-39.299l0.35-26.087L5000,1271.6 v-20.936l-53.334-54.134l0.317-23.696l53.017,32.921v-9.323l-52.893-32.844l0.21-15.718l52.683,47.123v-17.403l-52.44-47.838 l0.718-53.595l50.508,42.09l1.214-1.457v-7.846l-51.586-42.988l0.386-28.819l51.2,29.785v-9.158l-51.078-29.714l0.025-1.937 l51.052,27.15v-8.967l-50.933-27.086l0.351-26.207l50.582,34.314v-16.075l-50.35-35.538l0.323-24.132L5000,983.456v-17.59 l-49.812-32.378l0.157-11.723L5000,944.97v-8.747l-49.538-23.151l0.127-9.543L5000,933.8v-9.283l-49.287-30.195l0.062-4.622 L5000,918.109v-9.146l-49.104-28.338l0.123-9.205L5000,900.65v-9.217l-36.108-21.549L5000,885.771v-8.649l-48.77-21.459 l0.186-13.882L5000,869.542v-9.122l-34.221-19.554l34.221,16.85v-8.83l-48.359-23.811l0.518-38.679l47.842,23.92v-10.59 l-47.722-22.302l1.505-112.391L5000,679.693v-39.748l-746.771-240.749l2.124-3.649l0.177-0.044l-0.045-0.182l6.739-11.583 l13.88-4.949l2.065-22.814l-1.447-0.132l1.414-3.535l-114.354-36.303l0.159-1.431l-11.803-1.315l-0.421,3.777l-65.7,7.821 l-111.596-42.075l-9.809,7.006l-2.504-1.083l4.699-28.821l2.575,0.859l1.611-4.829l14.374,4.913l10.986-21.955l-155.525-51.229 v1.729h-0.024v-1.729l-5.079,1.729h-5.351v1.821l-75.549,25.712l-156.369-52.724l0.942-2.96l-152.235-48.431l-0.109,0.342 l-4.364-1.472l8.345-22.956l1.504-1.65l14.811-3.089l-3.598-1.355l19.051-24.577L3309.324,0l-121.016,79.639l-33.08,1.628 l-19.706-13.549l-0.27,5.644L3008,156.198l10.699,12.545l10.455,26.142l6.529-4.317l1.385,1.894v14.842l-68.353,51.535l0.417,3.482 l-4.656,2.588l6.332,11.397l1.139,9.502l5.432,2.325l8.159,14.687l7.303-7.094l11.99,5.993l8.352,54.286l-3.111-1.799l-1.972,3.465 c-0.093,0.162-12.267,21.17-35.162,58.641c-124.483,204.583-741.912,1180.979-1405.876,1565.654l-67.881-4.889 c-1.605,0-1.617,1.052-1.636,3.86c-0.89,0.475-2.378,1.31-4.807,2.704l-4.529-1.687c-0.178-0.066-0.364-0.101-0.553-0.101 c-1.084,0-1.43,0.139-1.643,5.675c-7.547,4.382-19.554,11.391-38.899,22.688c-5.182,3.025-10.514,6.138-15.686,9.156 c-28.096,6.936-55.361,13.856-81.967,20.752l-90.352,6.983c-4.301,0.518-9.073,0.758-14.298,0.766 c-66.921,0-197.557-42.951-295.437-79.014c-84.444-31.046-159.185-62.241-188.352-74.623l6.877-9.453l-2.638-13.203l-411.86-18.478 l-42.239,23.761l10.558,7.92l2.638,23.761l10.426,10.426l0.116,0.213l-0.021,6.534l-0.046,8.409 c-1.229,17.719-24.108,74.763-54.281,140.172l-1.583,3.426c-25.055,54.16-56.211,117.911-87.52,180.576l-0.009,0.001l0,0.016 c-71.938,143.982-144.69,282.197-146.149,284.968l0.636,0.334L0,2565.234l0.226,62.296l332.054-172.302v288.218l-0.023,7.295 l0.023,0.001v0.103l58.08,2.637l364.338,13.203l-2.638-335.294v-40.151c157.415-80.267,801.061-361.293,2215.111-436.127 c9.672,18.685,17.39,38.792,18.718,56.905l-7.82,403.375l-0.326,77.571v232.148l-4.096,312.969l201.552-4.068l136.807,1.216 l151.834-0.237l72.709-4.99l708.083-103.016v-867.282c18.917-16.547,26.794-85.082,29.466-116.618l236.717-34.193L5000,1863.406 V1855.449z M310.499,2289.511l-15.127,28.05l-1.951-37.621l16.54-31.085L310.499,2289.511z M309.853,2240.632l-16.83,31.629 l-1.833-35.344l18.15-35.004L309.853,2240.632z M285.165,2197.166l2.016,38.87l-22.886,44.137l-3.16-31.019 C269.495,2231.115,277.581,2213.614,285.165,2197.166z M260.349,2241.433l-2.054-20.162l25.436-51.76l0.993,19.151 C277.081,2205.247,268.873,2223.025,260.349,2241.433z M287.587,2243.864l1.824,35.182l-21.176,39.799l-3.207-31.476 L287.587,2243.864z M289.81,2286.726l1.947,37.539l-19.32,35.825l-3.481-34.17L289.81,2286.726z M309.229,2193.515l-18.445,35.573 l-2.056-39.651c7.214-15.655,13.916-30.232,19.876-43.212L309.229,2193.515z M308.481,2136.996 c-5.952,12.972-12.769,27.809-20.195,43.934l-0.97-18.714l20.935-42.601L308.481,2136.996z M308.135,2110.863l-21.242,43.225 l-0.533-10.288c7.786-15.618,15.053-30.378,21.628-43.974L308.135,2110.863z M307.872,2090.957 c-6.586,13.718-13.959,28.767-21.929,44.804l-1.993-38.43l23.375-47.649L307.872,2090.957z M307.082,2024.675l0.128,16.246 l-23.681,48.273l-0.555-10.701C291.882,2059.171,299.989,2041.102,307.082,2024.675z M283.309,2161.382l-25.773,52.446 l-1.095-10.753c9.172-17.988,18.017-35.472,26.329-52.086L283.309,2161.382z M253.125,2209.576l1.116,10.958l-26.374,53.669 l-0.475-14.564C236.114,2242.764,244.744,2225.983,253.125,2209.576z M227.129,2251.528l-0.612-37.12l22.44-45.744l3.428,33.653 C244.173,2218.418,235.71,2234.903,227.129,2251.528z M254.999,2227.977l2.088,20.496c-9.156,19.758-18.62,40.121-28.089,60.403 l-0.856-26.247L254.999,2227.977z M282.354,2142.968c-8.372,16.783-17.324,34.522-26.653,52.844l-3.45-33.863l28.115-57.311 L282.354,2142.968z M279.41,2086.204l0.534,10.296l-30.715,62.611l-1.232,0.126l0.201,1.975l-21.825,44.489l-0.14-8.502 C245.261,2158.417,263.472,2120.555,279.41,2086.204z M226.476,2353.111l-21.212,40.909l-2.034-20.926 c7.292-15.443,14.793-31.41,22.347-47.553L226.476,2353.111z M225.292,2316.809c-7.69,16.452-15.346,32.77-22.809,48.598 l-2.48-25.517l24.422-49.696L225.292,2316.809z M224.15,2281.768l-24.876,50.621l-1.524-15.682 c8.608-16.496,17.293-33.2,25.913-49.857L224.15,2281.768z M199.182,2372.402c-7.974,16.882-15.69,33.12-22.934,48.229 l-2.565-27.181l22.996-46.796L199.182,2372.402z M223.399,2258.744c-8.747,16.921-17.579,33.924-26.35,50.746l-1.06-32.852 l26.762-54.554L223.399,2258.744z M222.448,2204.918l0.15,8.48l-26.881,54.795l-0.284-8.792 C204.501,2241.246,213.554,2223,222.448,2204.918z M195.95,2339.154l-22.978,46.759l-1.75-18.548 c7.567-14.402,15.326-29.207,23.172-44.229L195.95,2339.154z M193.693,2315.926c-7.823,14.989-15.577,29.795-23.152,44.221 l-0.497-30.618l22.396-45.655L193.693,2315.926z M191.77,2266.726l0.344,8.811l-22.212,45.279l-0.167-10.268 C177.028,2296.114,184.395,2281.466,191.77,2266.726z M167.167,2366.567c-4.989,9.494-9.886,18.798-14.67,27.87l-1.373-26.343 l15.312-31.215L167.167,2366.567z M165.972,2317.995l0.254,10.316l-15.526,31.649l-0.561-10.765 C155.348,2338.959,160.631,2328.551,165.972,2317.995z M146.531,2356.281l0.563,11.029l-19.046,38.825l-0.588-12.548 C133.635,2381.545,140.013,2369.072,146.531,2356.281z M126.066,2444.436c-5.457,10.295-10.591,19.963-15.356,28.927v-22.883 l14.127-28.798L126.066,2444.436z M106.749,2513.343l-17.508,8.715c4.505-8.429,10.444-19.554,17.508-32.821V2513.343z M106.749,2480.809c-10.159,19.093-18.297,34.33-23.627,44.295l-11.935,5.941l35.562-72.493V2480.809z M106.749,2449.552 l-41.404,84.401l-14.455,7.195c6.956-13.225,28.072-53.468,55.859-107.308V2449.552z M110.27,2427.015 c4.471-8.673,9.107-17.684,13.867-26.956l0.568,12.891l-14.157,28.859L110.27,2427.015z M110.709,2511.372v-29.575 c4.838-9.094,10.121-19.037,15.771-29.688l1.383,25.601l-16.344,33.26L110.709,2511.372z M117.361,2508.061l10.939-22.26 l0.884,16.374L117.361,2508.061z M128.619,2418.321l-0.186-3.97l19.077-38.888l1.323,25.924 c-6.675,12.651-13.097,24.796-19.17,36.26L128.619,2418.321z M130.078,2445.322c6.026-11.37,12.42-23.454,19.096-36.098 l1.004,23.074l-18.742,38.14L130.078,2445.322z M133.046,2500.253l-1.174-21.723l18.664-37.979l1.315,30.235 c-5.212,10.503-9.815,19.581-13.662,26.907L133.046,2500.253z M144.208,2494.697c2.431-4.706,5.105-9.978,7.998-15.759l0.502,11.528 L144.208,2494.697z M152.839,2402.281c4.88-9.25,9.896-18.775,15.01-28.499l1.787,18.922l-15.815,32.181L152.839,2402.281z M154.179,2433.138l16.167-32.899l2.579,27.313c-6.251,12.997-12.106,25.055-17.43,35.866L154.179,2433.138z M155.851,2471.62 c5.368-10.829,11.348-23.088,17.793-36.448l1.584,16.776l-18.667,36.001L155.851,2471.62z M162.157,2485.763l13.759-26.534 l1.775,18.802L162.157,2485.763z M176.969,2428.266c7.217-15.013,14.943-31.237,22.96-48.186l1.983,20.405l-23.321,44.976 L176.969,2428.266z M181.487,2476.141l-2.208-23.398l23.338-45.009l2.83,29.113l-19.81,37.229L181.487,2476.141z M191.74,2471.037 l14.4-27.063l1.845,18.977L191.74,2471.037z M205.969,2401.269l20.772-40.06l1.094,33.561l-19.023,35.751L205.969,2401.269z M211.78,2461.062l-2.275-23.411l18.59-34.936l1.218,37.342l-9.052,16.785L211.78,2461.062z M226.411,2453.779l3.157-5.854 l0.138,4.214L226.411,2453.779z M229.283,2317.617c9.603-20.546,19.24-41.262,28.591-61.426l3.096,30.396l-30.764,59.33 L229.283,2317.617z M230.47,2354.017l31.232-60.233l3.192,31.339l-33.325,62.629L230.47,2354.017z M231.829,2395.694l33.786-63.498 l3.473,34.101l-36.039,66.827L231.829,2395.694z M233.606,2450.198l-0.3-9.204l36.498-67.674l2.547,25.001l-20.851,42.97 L233.606,2450.198z M257.31,2438.398l15.806-32.572l2.395,23.512L257.31,2438.398z M273.152,2367.112l19-35.229l1.201,23.157 l-17.713,36.501L273.152,2367.112z M279.299,2427.453l-2.894-28.406l17.373-35.803l2.013,38.805l-13.982,24.154L279.299,2427.453z M288.242,2423.001l7.926-13.694l0.493,9.504L288.242,2423.001z M295.768,2325.18l14.84-27.515l0.281,21.24l-13.955,28.758 L295.768,2325.18z M297.359,2355.866l13.647-28.123l0.621,46.949l-12.198,21.073L297.359,2355.866z M300.524,2416.888l-0.719-13.864 l11.925-20.602l0.379,28.699L300.524,2416.888z M332.281,2396.962v4.118l-16.237,8.082l-0.442-33.432l16.958-29.299 L332.281,2396.962z M332.603,2338.455l-17.104,29.548l-0.638-48.206l18.051-37.199L332.603,2338.455z M332.925,2280.139 l-2.611-1.268l-15.571,32.087l-0.271-20.462l18.585-34.46L332.925,2280.139z M333.102,2248.089l-0.204-0.111l-18.532,34.365 l-0.54-40.752l19.526-38.808L333.102,2248.089z M333.55,2167.056l-0.034,6.133l-0.114,20.703l-19.684,39.476l-0.515-38.905 l20.413-39.368L333.55,2167.056z M333.653,2148.259l-0.756-0.392l-19.807,38.199l-0.638-48.23 c10.217-22.269,17.832-38.927,21.517-46.999L333.653,2148.259z M334.029,2080.189c-2.595,5.916-11.212,25.542-21.698,48.414 l-0.223-16.836l22-45.815L334.029,2080.189z M334.159,2056.693l-22.167,46.321l-0.148-11.192 c9.237-19.257,16.886-35.825,22.39-48.702L334.159,2056.693z M334.292,2032.654c-4.903,12.244-12.689,29.465-22.566,50.238 l-0.543-41.072l23.326-48.313L334.292,2032.654z M334.558,1984.292l-23.492,48.768l-0.097-17.469 c11.781-27.776,20.206-50.094,23.771-64.271L334.558,1984.292z M685.075,2201.124c-11.043-7.885-22.447-16.828-34.031-26.462 l0.365-32.088c10.802,8.811,21.555,17.299,32.143,25.263C684.159,2178.298,684.678,2189.342,685.075,2201.124z M680.884,2131.632 c0.891,9.642,1.69,19.988,2.38,31.061c-10.482-7.945-21.118-16.383-31.798-25.141l0.375-33.003 c9.439,6.515,18.76,12.915,27.893,19.162h-1.595v7.92H680.884z M679.596,2118.821c-9.079-6.214-18.337-12.579-27.7-19.046 l0.251-22.095c8.006,4.684,16.014,9.327,24.002,13.87C677.379,2099.877,678.534,2108.957,679.596,2118.821z M675.309,2086.179 c-7.691-4.393-15.401-8.863-23.107-13.382l0.07-6.134c7.009,3.28,14.144,6.526,21.407,9.744 C674.232,2079.538,674.776,2082.796,675.309,2086.179z M672.844,2071.716c-16.47-7.344-32.356-14.849-47.466-22.427 c14.757,6.077,30.278,12.039,46.561,17.831C672.241,2068.642,672.546,2070.127,672.844,2071.716z M643.821,1998.305 c0,0,11.574,5.133,22.605,45.181c-18.265-6.748-35.28-13.623-51.077-20.488C622.593,2010.328,632.114,1999.368,643.821,1998.305z M605.674,2043.634c1.259,0.658,2.577,1.315,3.847,1.973l0.033,1.645c-1.423-0.869-2.849-1.737-4.267-2.606 C605.414,2044.308,605.542,2043.976,605.674,2043.634z M603.796,2048.71c1.943,1.191,3.906,2.377,5.858,3.568l0.366,18.345 c-3.591-2.522-7.179-5.043-10.753-7.564C599.872,2060.813,601.385,2055.495,603.796,2048.71z M598.898,2067.635 c3.734,2.633,7.469,5.264,11.22,7.895l0.544,27.257c-4.03-3.555-8.047-7.127-12.042-10.714L598.898,2067.635z M598.561,2097.302 c4.051,3.623,8.123,7.231,12.208,10.82l0.629,31.519c-4.395-4.093-8.787-8.236-13.177-12.445L598.561,2097.302z M598.161,2132.559 c4.447,4.237,8.897,8.404,13.347,12.52l0.904,45.273c-4.786-5.688-9.68-11.58-14.706-17.733L598.161,2132.559z M597.638,2178.671 c5.072,6.167,10.039,12.103,14.898,17.82l0.976,48.827c-5.264-6.138-10.745-12.922-16.4-20.254L597.638,2178.671z M516.169,2019.715 c4.215,4.15,8.516,8.36,12.92,12.64c5.721,10.649,10.46,23.225,12.925,38.127c-8.834-9.321-17.468-18.597-25.845-27.745V2019.715z M481.889,1985.407c2.772,2.82,5.632,5.715,8.566,8.675l0.133,20.287c-6.903-7.772-13.546-15.331-19.835-22.57 C474.118,1988.853,477.817,1986.65,481.889,1985.407z M467.908,1994.544c7.167,8.245,14.768,16.885,22.72,25.803l0.083,12.726 c-8.715-11.879-17.299-23.674-25.646-35.236C465.982,1996.676,466.93,1995.58,467.908,1994.544z M462.474,2001.375 c0.06-0.089,0.122-0.177,0.183-0.266c8.816,12.202,18.225,25.135,28.097,38.57l0.156,23.871 c-9.993-16.713-19.551-33.004-28.436-48.354V2001.375z M462.474,2023.375c8.941,15.417,18.526,31.698,28.489,48.3l0.498,76.154 c-9.951-24.455-19.752-49.71-28.987-74.225V2023.375z M462.474,2085.099c9.3,24.453,19.125,49.452,29.057,73.468l0.656,100.374 c-9.485-27.747-19.669-61.903-29.714-97.977V2085.099z M458.327,2016.203c0.062,0.108,0.124,0.214,0.187,0.323v46.523 c-1.039-2.783-2.078-5.565-3.1-8.32L458.327,2016.203z M458.514,2074.638v71.988c-2.639-9.64-5.261-19.368-7.848-29.107l4.016-53.1 C455.948,2067.809,457.223,2071.212,458.514,2074.638z M458.514,2161.583v139.334l-13.962-102.556l5.199-68.749 C452.643,2140.351,455.57,2151.043,458.514,2161.583z M454.316,2016.714l-2.2,29.088c-1.376-3.733-2.739-7.439-4.075-11.096 C449.815,2028.51,451.899,2022.422,454.316,2016.714z M446.217,2041.553c1.689,4.606,3.415,9.281,5.162,13.993l-3.802,50.282 c-2.627-9.991-5.21-19.949-7.736-29.796C441.095,2066.263,443.103,2053.961,446.217,2041.553z M437.891,2095.987 c0,0,0.177-3.293,0.69-8.698c2.639,10.191,5.336,20.472,8.072,30.751l-4.655,61.56l-3.543-26.021L437.891,2095.987z M438.765,2185.212l1.806,13.261l-1.484,19.617L438.765,2185.212z M441.221,2368.153l-0.692-2.77l0-0.104l-0.986-100.682 l3.582-47.366l15.389,113.032l0.233,28.401C451.071,2362.729,445.187,2365.944,441.221,2368.153z M465.129,2355.312l-2.655-25.307 v-154.387c10.122,35.556,20.323,68.691,29.79,94.996l0.462,70.638C481.979,2346.603,472.849,2351.281,465.129,2355.312z M512.209,2331.698c-5.47,2.651-10.652,5.187-15.535,7.605l-0.378-57.766c5.695,14.948,11.06,27.011,15.913,35.222V2331.698z M512.209,2309.072c-4.883-9.471-10.277-22.689-15.985-38.59l-0.669-102.255c5.561,13.251,11.135,26.119,16.654,38.347V2309.072z M512.209,2196.919c-5.548-12.582-11.144-25.733-16.723-39.261l-0.519-79.319c5.652,9.369,11.414,18.8,17.242,28.222V2196.919z M512.209,2098.693c-5.857-9.518-11.631-19.031-17.294-28.454l-0.164-25.135c5.72,7.765,11.529,15.618,17.459,23.572V2098.693z M512.209,2062.166c-5.867-7.882-11.708-15.772-17.502-23.649l-0.089-13.692c5.694,6.355,11.589,12.855,17.591,19.415V2062.166z M512.209,2038.399c-6.022-6.608-11.934-13.148-17.63-19.532l-0.136-20.762c5.655,5.685,11.615,11.618,17.766,17.698V2038.399z M512.209,2010.246c-6.194-6.139-12.137-12.082-17.803-17.793l0-0.047c5.141,3.739,11.407,9.002,17.803,16.013V2010.246z M516.169,2329.776v-7.05c1.649,2.157,3.227,3.784,4.718,4.789C519.309,2328.271,517.702,2329.037,516.169,2329.776z M532.992,2321.754c-2.769,1.307-5.368,2.551-7.997,3.806c-2.286-2.099-6.816-6.437-8.826-9.46v-100.844 c6.739,14.619,13.364,28.16,19.742,40.129L532.992,2321.754z M536.244,2247.817c-6.484-12.597-13.217-26.73-20.075-41.984v-92.875 c8.045,12.926,16.189,25.735,24.324,38.236L536.244,2247.817z M541.7,2123.755l-0.702-0.035l-0.394,7.905l0.749,0.037l-0.546,12.422 c-8.252-12.772-16.499-25.846-24.637-38.993v-31.121c8.626,11.535,17.39,23.138,26.196,34.659L541.7,2123.755z M543.181,2090.092 l-0.549,12.48c-8.792-11.526-17.642-23.278-26.462-35.092v-18.908c8.628,9.382,17.546,18.903,26.633,28.436 c0.146,1.248,0.337,2.451,0.451,3.728L543.181,2090.092z M596.341,2292.896l0.697-61.365c5.73,7.285,11.273,13.971,16.597,19.995 l0.67,33.524C608.165,2287.711,602.16,2290.331,596.341,2292.896z M618.232,2283.343l-0.545-27.268 c7.175,7.813,13.865,14.2,19.969,18.964C631.026,2277.85,624.53,2280.624,618.232,2283.343z M645.982,2271.519 c-1.655,0.697-3.352,1.404-4.987,2.095l0.443-0.591c-7.101-5.327-15.162-13.244-23.872-23.049l-0.974-48.743 c10.696,12.451,20.734,23.584,29.815,32.924L645.982,2271.519z M646.468,2228.795c-9.071-9.529-19.167-20.893-29.997-33.637 l-0.927-46.384c10.574,9.685,21.116,18.983,31.519,27.682L646.468,2228.795z M647.12,2171.392 c-10.465-8.823-21.054-18.162-31.683-27.967l-0.635-31.787c10.855,9.474,21.781,18.743,32.683,27.71L647.12,2171.392z M647.542,2134.307c-10.963-9.063-21.944-18.426-32.846-27.983l-0.559-27.982c11.287,7.903,22.586,15.758,33.775,23.49 L647.542,2134.307z M647.966,2097.058c-11.249-7.78-22.601-15.672-33.927-23.61l-0.374-18.727 c11.433,6.948,22.968,13.844,34.548,20.648L647.966,2097.058z M648.268,2070.482c-11.628-6.848-23.228-13.798-34.703-20.78 l-0.041-2.041c11.21,5.757,22.796,11.492,34.808,17.169L648.268,2070.482z M649.962,2269.855l0.36-31.709 c9.576,9.585,17.92,16.886,24.666,21.329C666.414,2262.994,658.065,2266.456,649.962,2269.855z M679.249,2257.728 c-7.205-4.113-17.092-12.822-28.867-24.888l0.604-53.157c11.664,9.619,23.119,18.452,34.228,26.281 c0.466,15.196,0.743,31.502,0.806,48.988C683.718,2255.889,681.519,2256.8,679.249,2257.728z M750.455,2229.443 c-2.085,0.805-4.217,1.62-6.281,2.42l0.192-23.465c2.037,1.147,4.09,2.33,6.089,3.399V2229.443z M750.455,2207.283 c-1.996-1.084-4.019-2.229-6.052-3.389l0.296-36.141c1.966,1.321,3.854,2.589,5.756,3.865V2207.283z M750.455,2166.85 c-1.889-1.269-3.767-2.53-5.717-3.841l0.281-34.344c1.806,0.912,3.644,1.869,5.436,2.763V2166.85z M750.455,2126.75 c-1.793-0.901-3.591-1.81-5.398-2.729l0.155-18.893c1.75,0.631,3.483,1.273,5.243,1.897V2126.75z M750.455,2102.832 c-1.75-0.623-3.47-1.265-5.209-1.894l0.087-10.601c1.698,0.474,3.411,0.943,5.122,1.412V2102.832z M750.455,2070.628 c-1.656-0.464-3.308-0.929-4.949-1.396l0.502-61.324c1.491,0.651,2.941,1.302,4.447,1.953V2070.628z M750.455,1992.369 c-1.473-0.645-2.852-1.279-4.304-1.922l0.164-19.991c1.374,0.679,2.753,1.358,4.14,2.041V1992.369z M750.455,1954.794 c-1.355-0.67-2.658-1.324-3.995-1.989l0.066-8.133c1.318,0.546,2.616,1.075,3.929,1.617V1954.794z M750.455,1941.998 c-1.293-0.534-2.596-1.078-3.894-1.617l0.218-26.563l1.533-2.108c0.714,0.542,1.419,1.086,2.143,1.625V1941.998z M1120.211,2058.712 c16.073,3.995,30.867,7.503,43.832,10.469c-12.67-2.255-27.405-5.113-43.972-8.653L1120.211,2058.712z M1041.062,2017.688 c9.384,3.063,18.699,6.014,27.949,8.884v14.722c-9.41-2.569-19.05-5.267-28.861-8.091L1041.062,2017.688z M1039.913,2037.219 c9.9,2.848,19.612,5.566,29.098,8.151v3.338c-9.383-2.329-19.157-4.84-29.329-7.548L1039.913,2037.219z M1039.444,2045.185 c10.275,2.73,20.097,5.238,29.566,7.583v19.627c-10.18-2.005-20.45-4.319-30.766-6.821L1039.444,2045.185z M1069.01,2099.839v6.196 c-9.402-0.411-20.502-1.079-33.017-2.192l0.539-9.167C1047.211,2096.515,1058.033,2098.238,1069.01,2099.839z M1004.729,2005.494 c10.829,3.727,21.659,7.372,32.442,10.914l-0.922,15.668c-10.536-3.055-21.256-6.259-32.087-9.601L1004.729,2005.494z M1004.027,2026.541c10.803,3.329,21.481,6.512,31.986,9.555l-0.237,4.031c-10.249-2.753-20.891-5.706-31.905-8.866 L1004.027,2026.541z M1000.809,2004.141l-0.57,17.12c-14.115-4.389-28.395-9.014-42.686-13.875l-1.331-18.074l-3.952,0.294 l1.208,16.384c-10.86-3.727-21.707-7.59-32.482-11.582l-0.963-19.5C946.205,1984.756,973.438,1994.673,1000.809,2004.141z M923.909,2053.414l-0.312-6.327c11.214,4.071,22.475,8.019,33.775,11.758l0.235,3.188 C946.154,2059.255,934.88,2056.396,923.909,2053.414z M958.845,2078.838l1.039,14.1c-11.299-2.279-22.823-4.948-34.42-8.043 l-0.722-14.614C935.884,2073.25,947.271,2076.095,958.845,2078.838z M803.212,2124.133l2.311,28.067 c-6.433-2.654-13.078-5.546-19.876-8.615l-1.783-25.354C790.259,2120.248,796.701,2122.226,803.212,2124.133z M783.566,2113.985 l-0.978-13.905c6.255,1.531,12.593,3.027,19.013,4.491l1.264,15.341C796.367,2117.998,789.946,2116.009,783.566,2113.985z M781.089,2078.764l-1.201-17.077c10.387,8.928,20.698,16.945,30.867,24.166C800.625,2083.571,790.761,2081.198,781.089,2078.764z M800.778,1996.394l2.165,17.473c-9.342-3.586-18.45-7.175-27.175-10.763l-1.336-18.989 C783.004,1988.195,791.834,1992.295,800.778,1996.394z M773.147,1965.84l-0.747-10.627c8.268,3.327,16.403,6.54,24.476,9.696 l1.595,12.868C789.821,1973.768,781.358,1969.784,773.147,1965.84z M795.87,2028.421c3.185,2.541,6.463,4.982,9.79,7.368 l5.645,45.557c-10.48-7.527-21.108-15.934-31.814-25.307l-2.464-35.049C783.186,2023.482,789.484,2025.958,795.87,2028.421z M841.908,2028.135l-0.782-13.824c14.073,6.05,28.423,11.994,42.985,17.772l0.984,10.066 C870.211,2037.587,855.727,2032.918,841.908,2028.135z M886.79,2059.476l1.355,13.856c-15.304-5.459-30.37-11.775-44.763-19.162 l-0.493-8.704C857.049,2050.286,871.721,2054.953,886.79,2059.476z M841.58,2092.386c-6.965-1.39-13.82-2.822-20.586-4.288 c-1.768-1.192-3.534-2.38-5.312-3.621l-5.65-45.599c9.393,6.445,19.289,12.288,29.518,17.628L841.58,2092.386z M809.374,2033.572 l-0.01-0.079c9.594,3.573,19.411,7.097,29.48,10.563l0.447,7.898C828.875,2046.412,818.866,2040.292,809.374,2033.572z M814.541,2107.458l2.021,16.307c-3.208-0.893-6.447-1.75-9.628-2.672l-1.285-15.599 C808.596,2106.156,811.558,2106.811,814.541,2107.458z M817.088,2128.016l3.743,30.206c-3.652-1.366-7.394-2.83-11.199-4.363 l-2.351-28.544C810.521,2126.249,813.821,2127.113,817.088,2128.016z M820.692,2124.911l-2.055-16.581 c7.922,1.692,15.956,3.334,24.123,4.916l0.999,17.646C836.001,2128.982,828.31,2126.995,820.692,2124.911z M843.993,2135.022 l1.783,31.5c-6.549-1.863-13.495-4.141-20.767-6.771l-3.791-30.597C828.74,2131.198,836.333,2133.148,843.993,2135.022z M845.591,2093.203l-1.955-34.538c14.48,7.299,29.596,13.541,44.926,18.938l2.312,23.644 C875.355,2098.752,860.232,2096.076,845.591,2093.203z M892.901,2121.969l0.401,4.096c-5.207-2-10.536-4.189-15.984-6.608 C882.47,2120.316,887.657,2121.157,892.901,2121.969z M921.558,2005.801l-0.352-7.13c10.813,3.992,21.697,7.85,32.585,11.576 l0.45,6.098C943.631,2013.014,932.724,2009.495,921.558,2005.801z M954.55,2020.552l1.551,21.049 c-11.238-3.794-22.35-7.771-33.359-11.831l-0.975-19.738C933.003,2013.741,943.878,2017.211,954.55,2020.552z M921.447,2083.789 c-9.743-2.683-19.493-5.687-29.181-9.034l-1.373-14.044c9.767,2.895,19.697,5.721,29.832,8.458L921.447,2083.789z M892.685,2079.035 c9.624,3.282,19.305,6.243,28.966,8.881l0.891,18.055c-9.366-1.286-18.557-2.656-27.623-4.086L892.685,2079.035z M923.55,2126.377 l0.482,9.762c-8.367-2.277-17.257-5.081-26.597-8.526l-0.492-5.031C905.69,2123.911,914.549,2125.182,923.55,2126.377z M919.893,2052.316c-10.474-2.885-20.674-5.861-30.691-8.893l-0.948-9.689c10.354,4.073,20.798,8.035,31.307,11.889 L919.893,2052.316z M918.706,2028.285c-10.901-4.058-21.649-8.198-32.197-12.41l-1.805-18.453 c11.236,3.918,22.295,7.708,33.035,11.275L918.706,2028.285z M917.53,2004.465c-10.827-3.604-21.915-7.39-33.247-11.351l-0.894-9.14 c11.117,4.536,22.394,8.931,33.779,13.177L917.53,2004.465z M915.995,1973.39l0.964,19.519 c-11.461-4.289-22.823-8.724-33.998-13.307l-1.916-19.595C892.393,1964.413,904.069,1968.888,915.995,1973.39z M882.362,2014.197 c-14.55-5.859-28.663-11.784-42.244-17.692l-0.873-15.411c14.153,5.249,27.869,10.158,41.334,14.88L882.362,2014.197z M880.159,1991.672c-13.375-4.703-27.106-9.671-41.158-14.894l-0.71-12.541c13.243,6.237,26.935,12.255,40.949,18.04 L880.159,1991.672z M876.906,1958.404l1.904,19.475c-13.96-5.795-27.605-11.816-40.769-18.061l-0.723-17.067 C849.891,1947.79,863.084,1953.021,876.906,1958.404z M837.862,2026.689c-10.595-3.708-20.799-7.458-30.732-11.229l-2.123-17.133 c10.48,4.773,21.166,9.527,32.055,14.24L837.862,2026.689z M836.053,1994.732c-9.174-4.018-18.179-8.02-26.771-11.948 c-2.232-1.018-4.37-2.03-6.578-3.047l-1.633-13.183c11.564,4.499,22.972,8.866,34.125,13.024L836.053,1994.732z M834.95,1975.258 c-11.282-4.215-22.726-8.56-34.428-13.124l-2.271-18.323c11.456,6.363,23.48,12.533,35.966,18.501L834.95,1975.258z M833.283,1941.139l0.684,16.738c-12.627-6.08-24.778-12.368-36.308-18.854l-1.615-13.034 C807.497,1930.706,819.987,1935.797,833.283,1941.139z M796.327,1960.476c-7.979-3.127-16.066-6.35-24.235-9.644l-1.664-23.666 c7.495,4.845,15.347,9.594,23.536,14.238L796.327,1960.476z M791.839,1924.257l1.527,12.319c-8.111-4.662-15.885-9.427-23.281-14.29 l-0.513-7.294C776.406,1917.857,783.832,1920.949,791.839,1924.257z M754.415,1908.606c3.468,1.47,7.117,3.012,11.064,4.671 l0.439,6.249c-3.961-2.678-7.788-5.388-11.503-8.124V1908.606z M754.415,1916.297c3.823,2.761,7.784,5.488,11.852,8.189l1.736,24.69 c-4.511-1.828-9.021-3.655-13.589-5.534V1916.297z M754.415,1947.899c4.67,1.918,9.285,3.787,13.896,5.651l0.727,10.331 c-4.998-2.414-9.818-4.783-14.622-7.149V1947.899z M754.415,1974.448c5.21,2.547,10.526,5.111,15.906,7.687l1.249,17.76 c-6.306-7.243-12.053-14.981-17.155-23.238V1974.448z M754.415,1983.768c3.481,5.219,7.171,10.262,11.145,15.061 c-3.747-1.581-7.523-3.164-11.145-4.735V1983.768z M754.415,2011.592c6.036,2.583,12.242,5.157,18.521,7.723l2.324,33.044 c-6.93-6.223-13.886-12.873-20.845-19.946V2011.592z M754.415,2037.995c7.094,7.091,14.178,13.732,21.238,19.957l1.392,19.8 c-7.685-1.962-15.236-3.961-22.63-6.005V2037.995z M754.415,2092.841c4.583,1.24,9.233,2.456,13.913,3.661l-0.845,0.03l0.426,12.303 c-4.509-1.513-9.049-3.002-13.494-4.564V2092.841z M754.415,2108.459c4.495,1.572,9.081,3.072,13.64,4.595l0.787,22.716 c-4.748-2.27-9.557-4.617-14.427-7.04V2108.459z M754.415,2133.369c4.911,2.423,9.799,4.816,14.589,7.083l1.376,39.745 c-5.013-3.349-10.298-6.885-15.965-10.688V2133.369z M754.415,2227.917v-14.099c5.671,2.923,11.192,5.553,16.5,7.775 C765.318,2223.719,759.867,2225.817,754.415,2227.917z M754.415,2209.362v-35.087c5.729,3.841,11.109,7.44,16.135,10.796 l1.129,32.61C766.146,2215.336,760.341,2212.468,754.415,2209.362z M771.475,2097.32c2.343,0.597,4.704,1.186,7.071,1.774 l0.959,13.635c-2.559-0.824-5.045-1.707-7.585-2.547L771.475,2097.32z M772.066,2114.393c2.59,0.853,5.128,1.749,7.738,2.584 l1.74,24.746c-2.863-1.313-5.755-2.66-8.672-4.037L772.066,2114.393z M773.032,2142.307c2.973,1.389,5.922,2.747,8.839,4.069 l3.061,43.526c-3.284-2.186-6.747-4.493-10.495-6.995L773.032,2142.307z M775.713,2219.781l-1.108-32.003 c3.782,2.522,7.404,4.937,10.677,7.114l1.458,20.73C783.033,2217.014,779.36,2218.4,775.713,2219.781z M790.61,2214.161 l-1.16-16.502c7.116,4.727,12.662,8.397,16.373,10.848C800.716,2210.399,795.608,2212.289,790.61,2214.161z M789.099,2192.675 l-3.123-44.415c6.839,3.049,13.442,5.821,19.918,8.447l4.102,49.813C806.063,2203.924,798.84,2199.15,789.099,2192.675z M813.889,2205.53l-3.888-47.198c3.865,1.53,7.673,2.998,11.384,4.355l4.426,38.474 C821.749,2202.643,817.776,2204.098,813.889,2205.53z M829.635,2199.764l-4.078-35.598c7.117,2.513,14.021,4.793,20.459,6.574 l1.281,22.637C840.99,2195.643,835.173,2197.748,829.635,2199.764z M846.771,2114.036c5.251,1,10.58,1.963,15.933,2.915 c3.222,1.59,6.416,3.114,9.571,4.555l0.485,16.014c-8.399-1.772-16.728-3.646-24.978-5.636L846.771,2114.036z M848.014,2136.006 c8.215,1.97,16.505,3.824,24.868,5.58l0.925,30.557c-7.155-0.646-15.193-2.181-24.003-4.517L848.014,2136.006z M867.365,2178.242 l-0.14,8.028c-5.38,1.906-10.767,3.813-16.043,5.703l-1.146-20.242c8.737,2.242,16.727,3.699,23.888,4.304l0.085,2.789 c-4.701-2.121-4.878-2.135-5.035-2.138C868.139,2176.772,867.381,2177.375,867.365,2178.242z M870.416,2185.144l0.078-4.466 c0.911,0.412,2.185,0.993,3.621,1.649l0.045,1.494C872.909,2184.263,871.661,2184.703,870.416,2185.144z M876.292,2123.301 c5.953,2.628,11.769,4.999,17.437,7.137l1.118,11.43c-6.063-1.115-12.107-2.254-18.098-3.489L876.292,2123.301z M880.258,2181.668 c-0.801-0.366-1.541-0.704-2.23-1.019l-0.132-4.364c1.032,0.041,2.18,0.2,3.171,0.2c0.507,0,6.351,0.255,12.558,0.522 C889.147,2178.564,884.665,2180.121,880.258,2181.668z M881.04,2172.526c-1.049,0-2.165-0.068-3.262-0.116l-0.907-29.975 c6.085,1.248,12.218,2.407,18.376,3.531l2.667,27.274C890.396,2172.918,881.639,2172.526,881.04,2172.526z M897.863,2131.984 c9.262,3.355,18.071,6.075,26.375,8.299l0.32,6.496c-8.617-1.266-17.169-2.651-25.656-4.169L897.863,2131.984z M903.789,2173.487 c-0.594-0.024-1.214-0.049-1.875-0.077l-2.612-26.714c8.422,1.496,16.907,2.861,25.456,4.109l0.751,15.215 C918.149,2168.524,910.966,2171.006,903.789,2173.487z M925.667,2089.004c11.639,3.079,23.193,5.707,34.515,7.975l1.013,13.748 c-11.753-1.292-23.345-2.671-34.662-4.192L925.667,2089.004z M927.54,2126.922c11.494,1.492,23.242,2.843,35.151,4.1l0.961,13.038 c-10.098-1.254-22.083-3.344-35.603-6.83L927.54,2126.922z M961.441,2060.156c10.904,3.563,21.817,6.961,32.715,10.139 c-11.033-2.333-21.872-4.765-32.507-7.308L961.441,2060.156z M929.406,2164.706l-0.657-13.318 c9.759,1.375,19.588,2.586,29.498,3.611C948.466,2158.254,938.903,2161.484,929.406,2164.706z M928.55,2147.373l-0.298-6.032 c13.553,3.436,25.575,5.502,35.695,6.73l0.269,3.647C952.204,2150.563,940.341,2149.046,928.55,2147.373z M974.404,2149.68 c-2.073,0.683-4.157,1.365-6.217,2.046l-0.236-3.199c2.268,0.238,4.435,0.44,6.474,0.599 C974.418,2149.323,974.41,2149.469,974.404,2149.68z M977.648,2144.051c-1.329-0.498-1.454-0.51-1.598-0.515 c-0.753,0-1.139,0.037-1.37,1.646c-2.216-0.173-4.53-0.377-7.024-0.646l-0.964-13.086c3.719,0.383,7.468,0.747,11.227,1.106 C977.82,2135.129,977.742,2138.83,977.648,2144.051z M996.199,2142.538c-3.339,1.083-6.639,2.162-9.947,3.242 c-1.389-0.03-2.897-0.08-4.514-0.153c-0.333-0.13-0.653-0.254-0.946-0.368c0.085-4.876,0.163-9.311,0.219-12.417 c5.128,0.479,10.262,0.953,15.465,1.387L996.199,2142.538z M997.142,2114.25c-10.82-0.927-21.469-1.952-31.943-3.075l-0.985-13.373 c11.453,2.216,22.585,4.023,33.291,5.543L997.142,2114.25z M997.636,2099.417c-10.824-1.54-22.145-3.441-33.723-5.697l-1.028-13.96 c11.502,2.688,23.233,5.234,35.15,7.666L997.636,2099.417z M999.111,2055.131c-13.025-3.801-26.03-7.87-38.937-12.176l-1.557-21.136 c14.249,4.43,27.993,8.552,41.192,12.36L999.111,2055.131z M999.944,2030.119c-13.345-3.858-27.219-8.017-41.637-12.511 l-0.441-5.989c14.146,4.797,28.278,9.382,42.238,13.717L999.944,2030.119z M1000.204,2141.251l0.224-6.714 c5.527,0.447,11.056,0.892,16.668,1.286C1011.433,2137.635,1005.782,2139.446,1000.204,2141.251z M1031.266,2116.787 c-10.205-0.649-20.258-1.391-30.173-2.216l0.355-10.656c10.712,1.461,20.859,2.585,30.37,3.482L1031.266,2116.787z M1032.05,2103.466c-9.528-0.897-19.734-2.046-30.469-3.511l0.391-11.731c10.068,2.021,20.279,3.938,30.636,5.755L1032.05,2103.466z M1003.035,2056.307l0.7-21.004c10.941,3.133,21.618,6.12,31.803,8.85l-1.204,20.472 C1023.922,2062.043,1013.484,2059.309,1003.035,2056.307z M1035.217,2117.051l0.545-9.273c12.607,1.124,23.787,1.796,33.248,2.21 l0.091,8.732C1057.652,2118.263,1046.32,2117.729,1035.217,2117.051z M1083.677,2114.988c-3.571,1.093-7.179,2.191-10.707,3.279 v-8.11c4,0.153,7.581,0.254,10.782,0.322L1083.677,2114.988z M1083.818,2106.525c-3.22-0.068-6.81-0.17-10.848-0.323v-5.76 c3.619,0.516,7.275,0.996,10.925,1.485L1083.818,2106.525z M1086.861,2114.013c0.018-1.13,0.038-2.277,0.057-3.474 c3.049,0.048,5.723,0.07,7.759,0.07c1.394,0,2.472-0.007,3.351-0.015C1094.245,2111.741,1090.598,2112.871,1086.861,2114.013z M1110.901,2106.723c-5.617-0.006-17.793-0.041-23.917-0.136c0.024-1.412,0.047-2.835,0.071-4.262 c9.049,1.188,18.154,2.323,27.396,3.334C1113.27,2106.014,1112.09,2106.367,1110.901,2106.723z M1114.638,2079.559 c-13.632-1.538-27.549-3.663-41.668-6.354v-19.449c15.445,3.786,29.717,7.055,42.891,9.901L1114.638,2079.559z M1116.166,2059.693 c-13.24-2.867-27.663-6.188-43.196-10.004v-3.238c15.174,4.108,29.72,7.883,43.345,11.294L1116.166,2059.693z M1116.623,2053.746 c-13.731-3.439-28.366-7.234-43.653-11.377v-14.565c15.206,4.679,30.132,9.038,44.647,13.015L1116.623,2053.746z M1188.635,2083.208 l-3.091-0.099l0.044-2.573l3.082,0.572C1188.659,2081.791,1188.647,2082.5,1188.635,2083.208z M1188.725,2077.895l-4.398-0.816 c-0.476-0.108-0.932,0.031-1.292,0.325c-0.36,0.302-0.572,0.735-0.584,1.199l-0.076,4.405l-22.757-0.73h-0.244 c-13.175,0-26.831-0.822-40.8-2.279l1.191-15.504c28.929,6.169,52.134,10.219,68.969,12.777 C1188.733,2077.483,1188.729,2077.679,1188.725,2077.895z M1201.485,2080.263l-9.601-1.781l0.013-0.743 c4.604,0.682,8.803,1.275,12.349,1.74C1203.324,2079.74,1202.406,2080.002,1201.485,2080.263z M1215.598,2076.256 c-1.75-0.351-3.83-0.771-6.241-1.267l15.274-1.282C1221.585,2074.56,1218.62,2075.405,1215.598,2076.256z M1241.15,2069.138 l-42.663,3.581c-18.004-3.815-45.233-9.859-77.969-17.999l0.987-12.847c48.698,13.173,92.292,21.739,123.633,21.817 c5.677,0,11.007-0.294,15.841-0.866l1.969-0.232l12.505-2.83C1263.902,2062.894,1252.386,2066.025,1241.15,2069.138z M1485.735,1999.693c-0.037,2.018-0.076,4.25-0.116,6.517c-14.608,3.491-29.067,6.981-43.294,10.47 c2.034-1.187,4.16-2.429,6.388-3.73c13.09-7.644,27.137-15.846,37.19-21.688C1485.85,1993.527,1485.799,1996.182,1485.735,1999.693z M1488.801,2005.447c0.117-6.647,0.219-12.194,0.295-16.039c1.434-0.832,2.747-1.592,3.934-2.278l28.45,10.599 C1510.481,2000.301,1499.592,2002.873,1488.801,2005.447z M1552.157,1990.597c-8.458,1.943-16.747,3.888-25.087,5.832 l-30.474-11.352c1.507-0.863,2.576-1.468,2.989-1.685c1.118-0.271,1.125-1.543,1.133-2.417c0-0.193,0-0.402,0.004-0.615 l61.462,4.432C1558.84,1986.713,1555.502,1988.705,1552.157,1990.597z M2910.152,1016.019l-14.572,38.625l-2.191-55.954 l16.173-40.781L2910.152,1016.019z M2912.033,1429.72l-1.711,1.274l-2.634-67.249l5.945-4.929l0.622,61.249L2912.033,1429.72z M2914.511,1445.43l1.17,115.255l-0.235,1.151l-4.032-102.94L2914.511,1445.43z M2897.385,1626.388l-5.253-83.65l14.199-61.741 l4.125,105.302l-7.017,34.398L2897.385,1626.388z M2901.381,1630.789l-2.844,13.939l-0.668-10.638L2901.381,1630.789z M2732.056,1771.685l18.042-51.912l5.267,40.114l-17.707,16.646C2735.337,1774.514,2733.5,1772.925,2732.056,1771.685z M2735.339,1778.713l-7.734,7.271l0.028-1.573l3.315-9.537C2732.216,1775.98,2733.709,1777.286,2735.339,1778.713z M2748.965,1665.49l29.043-87.641l3.007,34.857l-28.292,81.405L2748.965,1665.49z M2607.466,1656.456l-3.025-41.236l29.11-24.14 l3.234,38.527l-2.826,7.126L2607.466,1656.456z M2629.792,1647.241l-19.411,48.945l-2.4-32.708L2629.792,1647.241z M2457.601,1594.673l27.99-25.611l2.959,55.713l-26.874,57.078L2457.601,1594.673z M2462.39,1824.393l-11.824-0.507l10.658-24.458 L2462.39,1824.393z M2401.408,1809.856l-15.625,11.632l-1.709-23.525l28.871-23.942l0.776,9.682L2401.408,1809.856z M2414.678,1795.619l0.33,4.113l-3.49,2.597L2414.678,1795.619z M2383.546,1790.688l-7.72-106.276l16.141-29.683l10.63-9.726 l9.769,121.785L2383.546,1790.688z M2264.62,1668.551l30.697-28.061l0.873,10.616l-30.004,49.651L2264.62,1668.551z M2267.019,1852.188l-17.144-9.566l15.911-27.776L2267.019,1852.188z M2291.879,1598.704l2.822,34.297l-30.455,27.84l-0.793-16.307 L2291.879,1598.704z M2262.945,1634.086l-1.377-28.32l27.383-42.66l2.11,25.65L2262.945,1634.086z M2294.233,1554.877l23.596-36.76 l1.798,24.583l-23.305,37.573L2294.233,1554.877z M2320.365,1552.779l3.806,52.025l-1.699,2.812l-22.227,20.318l-3.104-37.714 L2320.365,1552.779z M2801.542,867.651l-30.816,53.795l-2.968-39.204l31.049-51.381L2801.542,867.651z M2800.012,766.932 l23.491-36.597l-23.407,37.737L2800.012,766.932z M2884.266,917.693l-27.326,64.604l-2.328-37.059l28.205-64.548L2884.266,917.693z M2883.143,737.149l20.167-35.204l-20.098,36.96L2883.143,737.149z M2896.667,1372.883l5.259-4.361l2.616,66.775l-18.301,13.624 l-2.054-32.715L2896.667,1372.883z M2883.08,1398.592l-0.862-13.727l6.328-5.247L2883.08,1398.592z M2899.587,1362.746l1.86-6.455 l0.187,4.758L2899.587,1362.746z M2891.466,1369.481l-9.705,8.048l-1.946-30.99l19.098-54.949l1.794,45.816L2891.466,1369.481z M2852.575,1473.983l-3.005-40.421l10.557-30.375l16.436-13.63l1.632,25.989l-14.438,50.113L2852.575,1473.983z M2861.043,1475.083 l-6.665,23.136l-1.281-17.22L2861.043,1475.083z M2814.685,1502.191l-2.158-28.509l14.176-42.778l15.742-13.054l1.109,14.917 l-22.474,64.664L2814.685,1502.191z M2817.608,1507.419l-2.075,5.97l-0.317-4.189L2817.608,1507.419z M2769.191,1406.482 l26.896-71.296l4.483,59.221l-25.56,71.644l-0.635,0.526L2769.191,1406.482z M2774.088,1532.414l-22.386,16.666l19.184-53.774 L2774.088,1532.414z M2597.386,1519.082l-2.017-27.493l16.652-38.213l9.258-8.471l1.373,16.355L2597.386,1519.082z M2598.289,1612.604l-2.323,1.927l2.1-4.966L2598.289,1612.604z M2545.384,1591.425l-5.907-60.871l8.932-18.972l15.193-13.902 l4.583,41.42L2545.384,1591.425z M2545.704,1656.213l-2.75,2.28l2.431-5.564L2545.704,1656.213z M2485.664,1458.437l-1.333-25.096 l33.987-59.329l2.958,30.483l-23.126,42.53L2485.664,1458.437z M2489.445,1463.031l-3.222,5.925l-0.151-2.842L2489.445,1463.031z M2480.399,1471.301l0.405,7.622l-26.347,48.453l-1.451-31.033L2480.399,1471.301z M2452.686,1488.583l26.201-45.739l1.104,20.778 L2452.686,1488.583z M2480.324,1357.887l31.389-51.942l5.614,57.851l-33.576,58.613L2480.324,1357.887z M2522.301,1415.048 l0.882,9.092l-11.585,10.59L2522.301,1415.048z M2522.429,1354.89l-5.576-57.451l20.784-34.393l6.055,54.724L2522.429,1354.89z M2544.801,1327.782l3.076,27.795l-21.537,39.607l-2.919-30.078L2544.801,1327.782z M2549.021,1365.911l3.478,31.431l-23.835,21.789 l-1.3-13.393L2549.021,1365.911z M2866.391,1227.602l3.412,54.338l-25.732,77.654l-4.272-57.451L2866.391,1227.602z M2865.54,1119.231l8.661-7.917l-7.852,20.812L2865.54,1119.231z M2841.904,1410.578l-11.673,9.68l10.122-30.544L2841.904,1410.578z M2838.709,1287.502l-2.893-38.904l24.9-22.782L2838.709,1287.502z M2864.98,1213.866l-29.72,27.195l-0.603-8.111l27.494-72.878 l3.296,52.487L2864.98,1213.866z M2833.613,1218.903l-4.351-58.519l4.972-12.536l25.676-23.47l1.336,21.278L2833.613,1218.903z M2801.048,1322.039l23.981-63.568l5.211-4.768l3.54,47.616l-28.297,79.317L2801.048,1322.039z M2804.164,1441.875l-20.189,16.743 l17.7-49.616L2804.164,1441.875z M2815.342,1267.335l-15.354,40.7l-1.887-24.924L2815.342,1267.335z M2797.531,1275.581 l-2.237-29.546l28.952-73.003l4.391,59.06l-8.657,22.948L2797.531,1275.581z M2839.239,1135.228l18.433-46.48l1.759,28.021 L2839.239,1135.228z M2829.215,1144.391l-1.069,0.978l-5.042-67.823l29.488-69.713l4.207,67.006L2829.215,1144.391z M2823.128,1157.999l0.109,1.464l-28.968,73.042l-3.408-45.012L2823.128,1157.999z M2720.753,1251.585l26.976-24.66l0.972,11.264 l-42.614,100.747l-5.43-41.359L2720.753,1251.585z M2699.159,1286.167l-1.74-13.251l12.538-11.461L2699.159,1286.167z M2726.61,1238.182l18.448-42.22l2.028,23.502L2726.61,1238.182z M2749.795,1250.858l5.47,63.397l-46.795,42.819l-0.854-6.499 L2749.795,1250.858z M2753.262,1221.868l3.821-3.493l-3.424,8.094L2753.262,1221.868z M2755.909,1321.717l0.533,6.174 l-38.918,98.134l-8.11-61.763L2755.909,1321.717z M2754.752,1239.137l12.85-30.378l17.691-16.172l3.976,52.527l-23.67,59.685 l-4.802,4.394L2754.752,1239.137z M2773.153,1195.635l10.491-24.802l1.077,14.227L2773.153,1195.635z M2790.294,1258.644 l1.668,22.034l-16.333,14.945L2790.294,1258.644z M2790.298,1179.968l-1.597-21.09l29.337-69.355l4.531,60.944L2790.298,1179.968z M2787.722,1145.94l-3.073-40.585l29.54-67.604l2.885,38.797L2787.722,1145.94z M2783.691,1092.706l-2.146-28.355l29.575-67.87 l2.126,28.587L2783.691,1092.706z M2782.665,1157.895l-20.031,47.357l-10.016,9.155l-2.576-29.853l29.525-67.57L2782.665,1157.895z M2748.973,1172.161l-2.381-27.6l29.874-68.554l2.144,28.328L2748.973,1172.161z M2745.521,1132.149l-2.86-33.145l30.622-65.039 l2.224,29.373L2745.521,1132.149z M2743.989,1183.569l-28.175,64.482l-19.338,17.677l-0.621-4.733l45.756-105.001L2743.989,1183.569 z M2694.354,1249.569l-4.925-37.504l48.188-102.348l2.922,33.865L2694.354,1249.569z M2626.189,1432.361l-0.809-9.641l30-68.845 l2.5,26.76l-16.546,37.867L2626.189,1432.361z M2635.473,1431.917l-7.819,17.894l-0.837-9.973L2635.473,1431.917z M2620.064,1359.392l13.03-27.675l18.626-17.026l2.517,26.939l-29.903,68.622L2620.064,1359.392z M2620.651,1437.428l-2.794,2.557 l2.523-5.791L2620.651,1437.428z M2619.071,1347.56l-0.236-2.809l2.736-2.501L2619.071,1347.56z M2639.748,1317.585l10.215-21.696 l1.063,11.386L2639.748,1317.585z M2659.023,1392.859l0.814,8.713l-7.7,7.045L2659.023,1392.859z M2659.146,1330.363l-1.934-20.693 l18.202-16.639L2659.146,1330.363z M2656.52,1302.254l-1.582-16.93l29.804-63.301l5.005,38.119l-8.502,19.51L2656.52,1302.254z M2687.998,1201.166l-9.607-73.165l52.477-96.504l5.733,66.442L2687.998,1201.166z M2683.31,1211.123l-29.459,62.569l-8.019-85.816 l27.73-50.994L2683.31,1211.123z M2644.841,1177.263l-1.938-20.735l27.041-47.204l2.303,17.54L2644.841,1177.263z M2648.876,1284.257l-20.651,43.861l-10.018,9.157l-7.17-85.413l29.707-54.631L2648.876,1284.257z M2558.739,1399.687l22.425-20.5 l3.103,42.293l-18.717,39.754L2558.739,1399.687z M2562.793,1490.37l-7.723,7.067l6.887-14.627L2562.793,1490.37z M2581.734,1305.751l24.136-44.386l6.798,80.974l-26.474,24.201L2581.734,1305.751z M2613.296,1349.816l0.713,8.496l-24.587,52.22 l-2.674-36.448L2613.296,1349.816z M2610.133,1241.09l-2.003-23.86l29.647-51.754l1.976,21.143L2610.133,1241.09z M2607.255,1206.811l-4.346-51.777l29.354-48.575l4.554,48.746L2607.255,1206.811z M2602.927,1226.312l2.039,24.279l-24.036,44.201 l-1.957-26.665L2602.927,1226.312z M2580.611,1371.643l-22.68,20.733l-3.94-35.605l22.495-41.367L2580.611,1371.643z M2552.847,1346.437l-3.033-27.407l23.879-41.685l1.988,27.1L2552.847,1346.437z M2553.307,1404.652l7.4,66.868l-17.171,36.469 l-5.74,5.252l-8.416-86.717L2553.307,1404.652z M2566.799,1472.523l18.353-38.98l2.5,34.08l-19.428,17.777L2566.799,1472.523z M2588.206,1475.168l1.129,15.398l-16.38,37.589l-3.922-35.443L2588.206,1475.168z M2590.269,1503.293l2.015,27.466l-15.193,34.771 l-2.824-25.516L2590.269,1503.293z M2590.307,1422.594l24.695-52.451l4.331,51.584l-12.254,28.12l-13.843,12.667L2590.307,1422.594z M2601.244,1463.238l-6.808,15.624l-0.646-8.803L2601.244,1463.238z M2623.697,1473.707l4.204,50.075l-25.71,60.782l-3.873-52.778 L2623.697,1473.707z M2628.969,1536.507l3.976,47.358l-29.039,24.081l-0.762-10.386L2628.969,1536.507z M2632.877,1512.019 l-4.177-49.761l17.576-40.224l14.255-13.044l2.881,30.838L2632.877,1512.019z M2662.793,1369.394l-2.503-26.785l25.895-59.423 l5.881-5.377l2.483,18.909L2662.793,1369.394z M2696.047,1308.128l5.466,41.625l-9.445,22.329l-26.737,24.465l-1.395-14.929 L2696.047,1308.128z M2686.511,1385.217l-18.216,43.065l-2.273-24.318L2686.511,1385.217z M2697.036,1375.587l7.025-6.427 l8.958,68.223l-35.507,89.532l-8.049-86.14L2697.036,1375.587z M2714.608,1449.486l7.893,60.111l-43.255,35.871l-0.515-5.516 L2714.608,1449.486z M2719.112,1438.128l38.471-97.005l5.569,64.551l-35.831,94.978L2719.112,1438.128z M2729.824,1565.367 l-28.607,21.296l23.295-61.748L2729.824,1565.367z M2764.333,1419.359l4.473,51.838l-34.969,29L2764.333,1419.359z M2768.01,1392.797l-5.525-64.035l8.131-20.503l21.915-20.052l2.496,32.976L2768.01,1392.797z M2780.063,1469.581l24.65-20.441 l1.801,23.787l-15.549,46.922l-11.269,8.389l-4.004-46.406L2780.063,1469.581z M2807.679,1488.312l1.369,18.077l-9.769,7.272 L2807.679,1488.312z M2806.588,1395.231l28.281-79.271l4.336,58.317l-17.611,53.144l-11.826,9.808L2806.588,1395.231z M2818.066,1438.066l-6.704,20.231l-1.045-13.805L2818.066,1438.066z M2844.662,1447.683l2.268,30.503l-17.361,12.924 L2844.662,1447.683z M2845.218,1375.031l25.583-77.2l3.007,47.885l-18.752,53.955l-7.54,6.253L2845.218,1375.031z M2874.771,1361.053l1.329,21.167l-12.203,10.12L2874.771,1361.053z M2851.285,1410.518l-2.824,8.127l-0.405-5.448 L2851.285,1410.518z M2879.302,1433.16l1.255,19.992l-8.93,6.648L2879.302,1433.16z M2878.852,1331.202l-3.045-48.479l20.352-61.416 l2.115,54.009L2878.852,1331.202z M2874.809,1266.832l-3.202-50.981l23.496-21.498l0.394,10.049L2874.809,1266.832z M2874.35,1205.291l19.086-53.498l1.363,34.786L2874.35,1205.291z M2870.51,1198.366l-3.255-51.824l16.629-44.078l7.357-6.725 l1.571,40.113L2870.51,1198.366z M2888.518,1090.179l2.269-6.015l0.149,3.804L2888.518,1090.179z M2878.835,1099.031l-13.773,12.591 l-2.25-35.832l25.162-63.448l2.217,56.588L2878.835,1099.031z M2861.938,1061.88l-4.164-66.299l27.039-63.924l2.586,66.022 L2861.938,1061.88z M2853.798,932.262l-1.851-29.469l29.118-66.821l1.218,31.098L2853.798,932.262z M2851.131,889.795l-1.173-18.681 l29.989-63.696l0.584,14.909L2851.131,889.795z M2851.758,994.549l-29.618,70.023l-2.861-38.47l30.13-68.955L2851.758,994.549z M2818.336,1013.418l-2.127-28.614l30.536-70.076l1.848,29.442L2818.336,1013.418z M2815.265,972.101l-1.753-23.579l31.195-66.257 l1.223,19.466L2815.265,972.101z M2812.617,936.486l-3.618-48.671l32.324-59.444l2.612,41.598L2812.617,936.486z M2808.185,876.877 l-0.584-7.856l32.691-57.068l0.331,5.271L2808.185,876.877z M2808.367,959.448l1.809,24.33l-29.59,67.904l-2.167-28.625 L2808.367,959.448z M2777.51,1011.051l-4.342-57.344l30.589-56.254l3.715,49.96L2777.51,1011.051z M2772.342,942.792l-0.817-10.794 l30.803-53.773l0.616,8.289L2772.342,942.792z M2767.937,963.328l4.438,58.629l-30.729,65.267l-5.626-65.201L2767.937,963.328z M2735.094,1011.291l-1.177-13.641l32.344-56.462l0.849,11.225L2735.094,1011.291z M2733.021,987.267l-3.589-41.602l33.031-54.659 l3,39.63L2733.021,987.267z M2729.942,1020.764l-52.866,97.219l-2.255-17.173l53.908-94.105L2729.942,1020.764z M2673.545,1091.091 l-5.711-43.495l56.374-93.288l3.625,42.014L2673.545,1091.091z M2668.667,1099.606l-26.724,46.651l-4.518-48.343l25.483-42.168 L2668.667,1099.606z M2636.496,1087.964l-3.643-38.99l24.071-38.808l4.746,36.141L2636.496,1087.964z M2631.938,1039.183 l-0.849-9.088l23.619-36.797l0.994,7.571L2631.938,1039.183z M2631.333,1096.508l-29.271,48.438l-3.426-40.807l29.036-46.813 L2631.333,1096.508z M2602.053,1215.893l-23.856,41.645l-4.031-54.94l23.506-38.897L2602.053,1215.893z M2573.414,1192.353 l-3.119-42.52l23.087-37.223l3.442,41.003L2573.414,1192.353z M2569.555,1139.759l-0.909-12.386l22.97-35.785l0.932,11.1 L2569.555,1139.759z M2568.853,1211.389l4.062,55.368l-24.21,42.262l-6.013-54.339L2568.853,1211.389z M2541.618,1244.969 l-4.592-41.499l27.942-45.049l3.135,42.722L2541.618,1244.969z M2535.968,1193.91l-1.475-13.329l28.808-44.879l0.928,12.646 L2535.968,1193.91z M2536.563,1253.336l-20.67,34.205l-4.196-43.234l20.253-32.653L2536.563,1253.336z M2510.751,1234.564 l-1.433-14.765l20.073-31.271l1.501,13.564L2510.751,1234.564z M2510.752,1296.046l-30.989,51.281l-2.521-47.472l29.296-47.233 L2510.752,1296.046z M2476.691,1289.478l-0.925-17.408l28.371-44.198l1.457,15.009L2476.691,1289.478z M2478.306,1431.912 l-26.177,45.696l-3.17-67.82l25.896-42.852L2478.306,1431.912z M2448.461,1399.126l-2.298-49.164l25.599-41.271l2.533,47.686 L2448.461,1399.126z M2445.674,1339.484l-0.894-19.141l25.492-39.715l0.939,17.684L2445.674,1339.484z M2446.632,1487.206 l-8.312,14.51l-12.603,11.521l-4.455-57.614l22.178-36.7L2446.632,1487.206z M2421.993,1542.162l3.04,39.32l-18.797,34.566 l-3.263-40.684L2421.993,1542.162z M2402.133,1564.885l-1.647-20.534l20.245-18.507l0.448,5.792L2402.133,1564.885z M2420.475,1445.438l-3.717-48.069l23.875-38.493l2.308,49.383L2420.475,1445.438z M2420.15,1518.325l-20.266,18.525l-3.247-40.479 l19.341-32.004L2420.15,1518.325z M2395.824,1486.23l-3.914-48.8l19.549-31.517l3.732,48.269L2395.824,1486.23z M2394.329,1541.928 l-27.057,24.733l-1.407-19.369l25.508-42.211L2394.329,1541.928z M2391.11,1427.454l-1.676-20.89l19.702-30.693l1.548,20.024 L2391.11,1427.454z M2390.561,1494.941l-25.44,42.098l-3.669-50.503l25.179-40.593L2390.561,1494.941z M2361.687,1571.768 l-23.708,21.673l22.57-37.349L2361.687,1571.768z M2360.719,1476.451l-1.641-22.595l25.056-39.035l1.696,21.145L2360.719,1476.451z M2359.803,1545.838l-30.319,50.173l-3.792-51.822l30.427-49.056L2359.803,1545.838z M2324.955,1534.11l-1.78-24.323l30.551-47.595 l1.66,22.855L2324.955,1534.11z M2311.601,1625.604l-10.165,16.82l-0.576-7.001L2311.601,1625.604z M2324.92,1615.049l5.49,75.041 l-15.545,27.136l-6.764,6.189l-5.833-70.882L2324.92,1615.049z M2330.392,1608.426l31.843-29.109l3.56,49.002l-30.103,52.55 L2330.392,1608.426z M2366.565,1638.921l2.111,29.067l-31.798,29.096l-0.411-5.622L2366.565,1638.921z M2369.225,1675.538 l0.549,7.564l-29.897,54.98l-2.447-33.45L2369.225,1675.538z M2367.821,1574.212l27.11-24.782l1.972,24.586l-25.822,45.076 L2367.821,1574.212z M2397.744,1584.494l3.297,41.11l-13.822,25.417l-12.958,11.856l-2.41-33.184L2397.744,1584.494z M2378.504,1667.048l-3.475,6.391l-0.219-3.011L2378.504,1667.048z M2407.107,1626.888l18.768-34.515l1.681,21.74l-20.006,18.306 L2407.107,1626.888z M2427.245,1532.996l15.76-27.512l4.298-3.929l1.677,35.891l-18.728,34.44L2427.245,1532.996z M2449.515,1548.9 l2.022,43.27l-18.415,16.85l-2.029-26.243L2449.515,1548.9z M2451.898,1599.892l4.368,93.452l-14.279,30.327l-8.283-107.132 L2451.898,1599.892z M2454.991,1538.829l26.414-48.575l3.778,71.129l-27.943,25.568L2454.991,1538.829z M2486.825,1480.288 l16.069-29.55l21.007-19.203l8.416,86.722l-41.46,37.936L2486.825,1480.288z M2533.034,1525.651l0.374,3.851l-39.512,83.92 l-2.631-49.55L2533.034,1525.651z M2494.692,1740.411l-11.473,8.54l10.63-24.394L2494.692,1740.411z M2494.561,1625.952 l39.968-84.89l5.974,61.563l-39.508,90.663l-2.738,2.271L2494.561,1625.952z M2541.684,1614.787l2.523,26.001l-11.42,26.135 l-21.645,17.95L2541.684,1614.787z M2537.666,1670.594l8.731-7.24l3.49,35.967l-36.717,27.334L2537.666,1670.594z M2549.09,1629.613 l-2.526-26.026l22.934-52.628l2.821,25.493L2549.09,1629.613z M2573.629,1588.291l4.537,41.001l-26.939,22.34l-0.959-9.879 L2573.629,1588.291z M2578.948,1636.36l0.277,2.5l-23.781,56.222l-3.524-36.309L2578.948,1636.36z M2580.562,1650.947l2.611,23.594 l-18.378,13.682L2580.562,1650.947z M2578.401,1577.369l14.815-33.905l3.896,53.106l-11.083,26.2l-2.386,1.979L2578.401,1577.369z M2590.938,1626.417l7.885-6.538l2.992,40.784l-13.116,9.764l-3.396-30.688L2590.938,1626.417z M2602.33,1667.685l3.021,41.182 l-9.694,24.443l-6.202-56.041L2602.33,1667.685z M2633.945,1524.744l30.635-72.424l8.106,86.763l-6.988,17.62l-27.178,22.539 L2633.945,1524.744z M2661.137,1568.203l-19.431,48.995l-2.581-30.742L2661.137,1568.203z M2670.657,1560.308l3.723-3.088 l4.318,46.206l-35.673,26.557L2670.657,1560.308z M2679.345,1610.35l1.309,14.008l-31.366,83.145l-5.908-70.378L2679.345,1610.35z M2679.915,1552.631l40.454-33.547l-27.971,74.144l-8.124,6.048L2679.915,1552.631z M2688.513,1603.525l-3.08,8.164l-0.513-5.489 L2688.513,1603.525z M2697.333,1596.959l33.376-24.848l1.739,13.244l-39.206,109.898l-6.55-70.089L2697.333,1596.959z M2728.959,1513.125l0.64-1.696l39.828-33.028l0.229,2.657l-26.549,74.419l-7.823,5.823L2728.959,1513.125z M2739.511,1565.559 l-2.68,7.512l-0.66-5.026L2739.511,1565.559z M2748.105,1559.161l26.583-19.79l2.027,23.484l-29.526,89.101l-8.66-65.952 L2748.105,1559.161z M2780.297,1535.195l7.412-5.517l-6.258,18.885L2780.297,1535.195z M2796.022,1523.489l13.556-10.092 l1.064,14.064l-24.844,71.486l-3.054-35.39L2796.022,1523.489z M2811.768,1542.33l6.221,82.195l-23.074,80.094l-7.866-91.166 L2811.768,1542.33z M2816.658,1528.258l9.44-27.16l21.353-15.897l2.19,29.457l-26.935,93.494L2816.658,1528.258z M2850.91,1531.713 l9.201,123.762l-1.747,7.593l-29.408,27.643l-4.963-65.567L2850.91,1531.713z M2855.646,1515.272l13.266-46.047l12.089-9 l5.151,82.024l-21.537,93.644L2855.646,1515.272z M2887.459,1563.057l4.309,68.612l-25.629,24.091L2887.459,1563.057z M2890.825,1521.93l-4.141-65.936l18.139-13.504l0.622,15.875L2890.825,1521.93z M2907.395,1356.271l-0.711-18.158l6.509-22.593 l0.362,35.644L2907.395,1356.271z M2913.256,736.672l61.785-131.227l-61.68,141.544L2913.256,736.672z M2913.117,723.032 l-0.266-26.2l93.937-172.748L2913.117,723.032z M2912.982,1294.797l-7.038,24.43l-1.685-43.021l8.292-23.859L2912.982,1294.797z M2903.622,1259.932l-2.142-54.68l7.958-24.016l2.369-2.168l0.565,55.684L2903.622,1259.932z M2904.277,1177.908l-3.734,3.417 l-1.745-44.557l12.233-34.288l0.542,53.413L2904.277,1177.908z M2898.172,1120.825l-1.188-30.337l13.795-12.61l0.075,7.399 L2898.172,1120.825z M2896.68,1082.718l-0.503-12.84l14.141-37.484l0.38,37.508L2896.68,1082.718z M2909.402,942.198l-16.588,41.827 l-2.555-65.242l18.462-43.648L2909.402,942.198z M2908.569,860.236l-18.858,44.584l-1.434-36.625l19.911-45.568L2908.569,860.236z M2908.041,808.121l-20.297,46.452l-1.219-31.129l21.179-48.601L2908.041,808.121z M2907.555,760.311l-21.566,49.489l-0.55-14.048 l22.001-46.729L2907.555,760.311z M2907.302,735.384l-22.366,47.505l-1.269-32.386l23.353-42.945L2907.302,735.384z M2906.779,683.942l-24.074,42.025l-1.249-31.874l25.006-41.379L2906.779,683.942z M2906.348,641.411l-25.313,41.889l-1.27-32.406 l26.249-42.321L2906.348,641.411z M2905.777,585.154l0.06,5.919l-26.781,41.721l-0.254-6.477 C2888.144,612.159,2897.159,598.403,2905.777,585.154z M2879.443,794.554l-30.257,64.265l-2.528-40.256l31.46-57.854 L2879.443,794.554z M2877.663,749.11l-31.706,58.306l-0.303-4.823l31.921-55.723L2877.663,749.11z M2877.137,735.688l-32.159,56.139 l-2.125-33.851l33.018-54.638L2877.137,735.688z M2875.447,692.546l-33.248,55.02l-2.059-32.786l34.03-54.864L2875.447,692.546z M2873.186,634.823l0.263,6.707l-34.531,53.796l-0.463-7.373l-0.781,0.049C2850.004,669.701,2861.848,651.957,2873.186,634.823z M2839.616,801.186l-32.801,57.26l-2.704-36.363l33.351-55.19L2839.616,801.186z M2836.809,756.484l-33.458,55.367l-2.507-33.718 l33.893-54.644L2836.809,756.484z M2832.948,694.99l0.551,8.777l-34.22,53.311l-0.848-11.404 C2810.326,728.358,2821.813,711.479,2832.948,694.99z M2798.047,820.63l-31.062,51.401l-2.652-35.032l31.192-50.288L2798.047,820.63 z M2794.777,776.649l-31.204,50.308l-0.22-2.914l31.321-48.794L2794.777,776.649z M2793.054,753.476l0.886,11.919l-31.333,48.813 l-0.975-12.872l-1.893,0.143C2771.162,785.162,2782.225,769.199,2793.054,753.476z M2761.689,880.794l-33.126,54.816l-3.101-35.944 l33.56-54.106L2761.689,880.794z M2758.261,835.519l-33.653,54.256l-0.409-4.738l33.822-52.69L2758.261,835.519z M2756.079,806.686 l1.198,15.826l-33.914,52.833l-1.722-19.955C2733.393,838.908,2744.871,822.67,2756.079,806.686z M2723.34,944.254l-56.746,93.904 l-4.723-35.969l58.351-94.074L2723.34,944.254z M2719.369,898.224l-58.718,94.667l-0.965-7.348l59.253-92.308L2719.369,898.224z M2716.318,862.866l1.784,20.676l-59.615,92.873l-3.324-25.311l-3.228,0.423C2674.16,921.388,2695.66,891.766,2716.318,862.866z M2649.635,954.659l3.875,29.51l-23.318,36.327l-3.291-35.221C2634.559,975.016,2642.147,964.803,2649.635,954.659z M2626.758,1047.535l-28.954,46.681l-0.911-10.848l28.993-45.167L2626.758,1047.535z M2621.604,992.383l3.385,36.219l-28.912,45.041 l-3.154-37.573l-4.599,0.384C2599.562,1021.678,2610.693,1006.964,2621.604,992.383z M2587.121,1038.033l3.68,43.831l-22.878,35.641 l-3.27-44.574l-4.527,0.331C2569.223,1061.467,2578.222,1049.724,2587.121,1038.033z M2558.842,1074.924l3.735,50.909 l-29.122,45.368l-5.566-50.3l-5.292,0.582C2534.853,1105.891,2546.914,1090.377,2558.842,1074.924z M2522.049,1122.183l6.304,56.966 l-19.962,31.098l-5.923-61.033l-1.964,0.19C2507.73,1140.314,2514.931,1131.235,2522.049,1122.183z M2496.956,1153.878l6.254,64.442 l-27.982,43.594l-3.875-72.97l-2.641,0.141C2478.214,1177.327,2487.627,1165.592,2496.956,1153.878z M2465.614,1192.934 l4.118,77.539l-25.432,39.62l-4.024-86.088C2448.781,1213.639,2457.24,1203.28,2465.614,1192.934z M2440.144,1348.399l-24.16,38.952 l-1.529-19.767l24.781-38.606L2440.144,1348.399z M2434.653,1230.886l4.105,87.842l-25.061,39.042l-7.186-92.94 C2415.966,1253.513,2425.347,1242.196,2434.653,1230.886z M2401.053,1271.317l7.325,94.741l-19.727,30.733l-7.834-97.672 l-3.407,0.271C2385.349,1290.035,2393.211,1280.675,2401.053,1271.317z M2375.093,1302.103l8.257,102.945l-24.99,38.931 l-8.191-112.764C2358.527,1321.518,2366.839,1311.814,2375.093,1302.103z M2344.675,1337.582l8.335,114.732l-30.556,47.602 l-9.239-126.283C2323.776,1361.637,2334.268,1349.62,2344.675,1337.582z M2307.713,1379.842l9.394,128.405l-23.676,36.884 l-11.239-136.58C2290.753,1399.002,2299.247,1389.429,2307.713,1379.842z M2276.733,1414.6l11.416,138.76l-27.078,42.184 l-7.53-154.873l-0.403,0.019C2261.05,1432.019,2268.896,1423.312,2276.733,1414.6z M2257.938,1653.424l0.614,12.622l-19.496,17.822 L2257.938,1653.424z M2227.517,1691.204l-1.565-29.953l30.088-46.874l1.39,28.599L2227.517,1691.204z M2247.874,1446.414 l7.669,157.742l-30.123,46.927l-8.571-171.181C2227.24,1468.773,2237.608,1457.629,2247.874,1446.414z M2199.982,1719.586 l-0.942-16.409l21.41-33.355l1.548,29.638L2199.982,1719.586z M2211.383,1717.217l-10.56,17.025l-0.402-7.004L2211.383,1717.217z M2210.865,1486.36l9.054,173.294l-21.459,33.43l-9.888-183.371C2195.985,1501.91,2203.51,1494.212,2210.865,1486.36z M2194.326,1724.757l-22.114,20.214l21.364-33.282L2194.326,1724.757z M2146.021,1554.139l7.067,208.315l-9.202,8.412 l-20.291-193.947C2131.096,1569.356,2138.571,1561.762,2146.021,1554.139z M2153.485,1774.147l1.171,34.526l-5.743,9.258 l-3.357-31.432L2153.485,1774.147z M1789.491,1939.792c-18.666,3.717-37.064,7.452-55.271,11.201 c-7.543,0.711-15.78,1.487-24.889,2.346c-0.808,0.077-1.427,0.75-1.439,1.559c-0.005,0.48-0.013,1.04-0.019,1.58 c-18.241,3.816-36.263,7.642-54.032,11.483c47.763-30.746,92.85-62.795,135.649-95.225V1939.792z M1799.604,1902.919 c-0.862,0-1.57,0.692-1.586,1.559l-0.586,33.757c-0.662,0.131-1.339,0.26-2.001,0.392v-70.435 c7.467-5.694,15.025-11.375,22.343-17.087l2.758,68.98c-20.117-17.127-20.449-17.159-20.905-17.166H1799.604z M1820.964,1933.62 l-10.145-0.984c-1.126,0-1.448,0.063-1.591,3.285c-2.865,0.564-5.761,1.125-8.615,1.69l0.519-29.827 c4.589,3.843,15.248,12.923,28.392,24.158C1826.652,1932.5,1823.825,1933.062,1820.964,1933.62z M1848.812,1928.189 c-5.141,0.987-10.193,1.982-15.301,2.972c-2.47-2.111-4.704-4.018-6.819-5.823l-3.147-78.808 c8.437-6.626,16.867-13.281,25.267-20.053V1928.189z M1879.941,1922.324c-8.402,1.581-16.879,3.154-25.188,4.743v-105.444 c8.41-6.818,16.814-13.659,25.188-20.603V1922.324z M1885.881,1921.205v-125.086c6.567-5.476,13.11-11.019,19.653-16.572 l5.724,136.929C1902.742,1918.047,1894.31,1919.625,1885.881,1921.205z M1917.167,1915.396l-5.587-141.031 c8.523-7.271,17.035-14.57,25.513-21.969l13.523,156.884C1939.367,1911.309,1928.279,1913.353,1917.167,1915.396z M1956.485,1908.215l-13.85-160.683c6.212-5.448,12.364-11.047,18.553-16.553l21.356,172.625 C1973.833,1905.137,1965.095,1906.668,1956.485,1908.215z M1996.04,1901.215c-2.562,0.449-5.08,0.903-7.638,1.352l-21.823-176.399 c11.787-10.531,23.526-21.162,35.216-31.909L1996.04,1901.215z M2002.188,1893.685l5.71-205.066 c7.405-6.841,14.849-13.601,22.21-20.53l12.236,195.598l-36.104,33.004C2003.329,1894.374,2002.516,1893.816,2002.188,1893.685z M2026.09,1895.974l-8.431-1.669l25.161-23l1.163,21.651C2038.025,1893.963,2031.993,1894.96,2026.09,1895.974z M2035.87,1662.591 c9.438-8.923,18.8-17.979,28.166-27.025l6.484,202.366l-22.549,20.613L2035.87,1662.591z M2049.873,1891.962l-1.426-25.8 l22.341-20.423l1.459,42.449C2064.743,1889.44,2057.341,1890.705,2049.873,1891.962z M2069.805,1630.03 c6.642-6.443,13.243-12.941,19.847-19.44l11.753,199.108l-25.122,22.965L2069.805,1630.03z M2076.552,1840.47l25.325-23.15 l1.479,23.926l-25.417,39.594L2076.552,1840.47z M2104.933,1880.616c-0.956,0-1.324,0.026-1.503,2.364 c-7.477,1.223-14.763,2.472-22.182,3.703l22.726-35.404l1.839,29.752C2105.278,1880.643,2105.114,1880.619,2104.933,1880.616z M2095.278,1605.025c7.516-7.426,15.068-14.798,22.535-22.292l20.631,193.107l-31.404,28.707L2095.278,1605.025z M2107.511,1812.169 l31.717-28.993l0.2,1.874l-30.643,47.738L2107.511,1812.169z M2109.404,1842.82l31.031-48.343l3.384,31.669l-32.234,51.968 L2109.404,1842.82z M2116.891,1880.826l27.954-45.069l4.264,39.915C2138.325,1877.384,2127.558,1879.097,2116.891,1880.826z M2155.019,1819.355l1.452,42.804l-2.581,2.361l-3.95-36.977L2155.019,1819.355z M2150.8,1875.401l5.936-5.432l0.151,4.458 C2154.844,1874.75,2152.838,1875.078,2150.8,1875.401z M2151.77,1548.266c10.497-10.782,20.787-21.762,31.171-32.654l10.056,185.984 l-34.219,53.31L2151.77,1548.266z M2159.132,1765.349l0.573-0.892l35.061-32.05l0.61,10.618l-35.082,56.56L2159.132,1765.349z M2160.655,1810.268l35.312-56.931l3.334,58.102l-15.585,25.79l-21.48,19.655L2160.655,1810.268z M2162.501,1864.694l10.33-9.452 l-10.084,16.688L2162.501,1864.694z M2169.386,1872.427l18.969-31.39l12.014-10.993l1.979,37.335 C2191.345,1869.059,2180.254,1870.726,2169.386,1872.427z M2201.415,1744.554l21.158-34.112l3.005,57.514l-20.841,34.488 L2201.415,1744.554z M2205.339,1812.933l20.791-34.406l0.992,18.985l-21.537,19.707L2205.339,1812.933z M2225.5,1863.841 c-5.784,0.872-11.497,1.755-17.243,2.635l-0.736-15.506l0.079-4.521c3.183,1.592,9.691,4.87,18.045,9.084L2225.5,1863.841z M2227.645,1830.449c-1.559,0-1.559,0-1.802,13.768l-0.136,7.79c-12.781-6.44-17.122-8.594-18.659-9.306l-1.023-17.83l21.5-19.673 l1.343,25.702l-0.448-0.25C2228.182,1830.518,2227.916,1830.449,2227.645,1830.449z M2229.151,1836.353l0.933,17.861 c-0.415-0.209-0.834-0.421-1.235-0.623C2228.976,1846.343,2229.083,1840.206,2229.151,1836.353z M2228.678,1863.355 c0.037-2.124,0.073-4.205,0.109-6.238c0.506,0.255,0.971,0.49,1.488,0.751l0.272,5.201 C2229.919,1863.164,2229.305,1863.261,2228.678,1863.355z M2228.079,1701.955l30.849-28.199l1.755,36.109l-29.628,49.03 L2228.079,1701.955z M2231.606,1769.465l29.593-48.971l2.134,43.885l-30.533,27.938L2231.606,1769.465z M2233.202,1800.002 l30.506-27.914l1.543,31.746l-20.562,35.894l-9.695-5.409L2233.202,1800.002z M2235.19,1838.06l7.923,4.421l-7.049,12.305 L2235.19,1838.06z M2243.687,1861.081c-1.165-0.588-2.308-1.166-3.401-1.718l8.013-13.988l18.842,10.514l0.058,1.768 C2259.36,1858.797,2251.444,1859.925,2243.687,1861.081z M2266.703,1711.387l30.319-50.172l5.535,67.274l-33.531,30.681 L2266.703,1711.387z M2269.401,1766.879l33.772-30.902l0.119,1.451l-32.559,56.838L2269.401,1766.879z M2273.052,1855.555 l-1.784-50.277l32.884-57.403l3.995,48.559l-33.498,60.012L2273.052,1855.555z M2311.594,1842.256 c-0.46-0.108-0.948,0.016-1.319,0.306c-0.371,0.294-0.588,0.739-0.599,1.214l-0.133,7.713c-8.985,1.279-17.772,2.594-26.683,3.886 l26.176-48.136l2.886,35.088L2311.594,1842.256z M2309.365,1738.773l10.187-17.784l12.295-11.25l2.78,37.997l-21.301,39.173 L2309.365,1738.773z M2317.994,1843.629l-3.779-45.915l21.215-39.013l4.958,67.777l-21.034,17.443L2317.994,1843.629z M2321.563,1849.802l2.077-1.722l4.063,0.872C2325.67,1849.238,2323.593,1849.515,2321.563,1849.802z M2335.042,1847.288l-8.3-1.781 l14.177-11.757l0.023,12.838L2335.042,1847.288z M2340.68,1749.046l29.892-54.971l7.357,101.272l-31.925,26.475L2340.68,1749.046z M2346.827,1845.89l-0.291-16.797l31.921-26.471l1.676,23.073l-22.724,18.939L2346.827,1845.89z M2368.182,1843.348l14.557-12.186 l3.727-0.273l-0.172-2.374l9.744-7.255l-12.876,20.091C2378.195,1842.023,2373.125,1842.673,2368.182,1843.348z M2390.548,1840.367 l15.601-26.633l9.42-7.013l1.508,30.109C2408.192,1838.002,2399.365,1839.183,2390.548,1840.367z M2408.152,1639.92l19.986-18.287 l8.73,112.911l-9.211,19.563l-9.7,8.045L2408.152,1639.92z M2418.536,1769.385l3.162-2.622l-2.881,6.119L2418.536,1769.385z M2419.772,1784.798l12.697-26.968l5.825-4.83l2.149,27.796l-19.809,14.747L2419.772,1784.798z M2435.331,1823.712 c-0.31,0.294-0.491,0.7-0.499,1.125l-0.158,9.649c-3.937,0.513-7.777,1.045-11.702,1.56l-1.776-33.513l19.79-14.733l1.227,35.727 l-5.725-0.246C2436.062,1823.286,2435.64,1823.418,2435.331,1823.712z M2438.505,1833.983c-0.218,0.028-0.434,0.057-0.653,0.086 l0.124-7.553l4.345,0.186l0.029,0.855L2438.505,1833.983z M2442.913,1735.65l13.946-29.62l1.074,22.971l-14.597,12.105 L2442.913,1735.65z M2443.895,1748.355l14.384-11.928l1.404,30.046l-13.604,10.128L2443.895,1748.355z M2446.621,1783.605 l13.397-9.974l0.578,12.367l-12.795,29.362L2446.621,1783.605z M2461.691,1831.003c-4.415,0.561-8.854,1.116-13.246,1.682 l-0.135-3.623l0.9-2.065l13.329,0.571L2461.691,1831.003z M2462.269,1694.538l26.947-57.233l3.345,62.978l-28.903,23.969 L2462.269,1694.538z M2464.005,1731.679l28.948-24.006l0.192,3.629l-19.518,44.79l-8.197,6.102L2464.005,1731.679z M2465.766,1769.352l3.085-2.296l-2.883,6.616L2465.766,1769.352z M2466.595,1787.101l11.847-27.186l16.628-12.379l0.27,5.089 l-27.423,62.761L2466.595,1787.101z M2468.616,1830.123l0.339-2.279l13.16,0.565 C2477.599,1828.977,2473.124,1829.553,2468.616,1830.123z M2470.315,1824.733l25.728-58.881l3.193,60.121L2470.315,1824.733z M2499.152,1712.39l6.726-15.435l21.622-17.931l-23.937,54.783l-3.149,2.344L2499.152,1712.39z M2501.347,1753.714l7.027-16.083 l42.183-31.404l0.032,0.331l-45.975,108.692L2501.347,1753.714z M2515.903,1824.211c-3.05,0.374-6.065,0.755-9.108,1.131 l9.477-22.404L2515.903,1824.211z M2542.995,1816.801c-0.859,0.016-1.547,0.704-1.563,1.559l-0.042,2.718 c-7.493,0.901-14.861,1.829-22.309,2.74l0.499-28.697l0.044-0.104c9.598,8.003,18.247,15.215,26.08,21.745L2542.995,1816.801z M2550.568,1816.689c-10.729-8.942-21.041-17.538-29.656-24.722l30.881-73.006l9.469,97.571L2550.568,1816.689z M2556.647,1707.485 l3.575-8.453l23.708-17.65l7.051,63.719l-24.651,62.158L2556.647,1707.485z M2582.924,1816.214l-13.837,0.203l23.288-58.721 l5.445,56.827C2592.877,1815.092,2587.847,1815.64,2582.924,1816.214z M2603.716,1813.854l-6.664-67.949l9.297-23.443l5.96,90.417 C2609.446,1813.204,2606.571,1813.527,2603.716,1813.854z M2611.378,1709.781l26.523-66.878l6.509,77.528l-26.999,71.568 L2611.378,1709.781z M2649.479,1804.193h-0.008c-0.866,0-1.578,0.696-1.594,1.558c0,0-0.023,1.358-0.052,3.096 c-9.498,1.051-18.827,2.141-28.257,3.207l25.995-77.872l5.876,69.995C2650.35,1804.187,2649.566,1804.193,2649.479,1804.193z M2650.441,1721.256l31.471-83.422l6.603,70.667l-31.688,88.823L2650.441,1721.256z M2693.618,1803.811 c-12.599,0.111-24.59,0.216-32.896,0.288l29.103-81.578l7.532,80.609l1.336,0.153 C2697.01,1803.461,2695.299,1803.632,2693.618,1803.811z M2694.551,1709.273l39.595-110.985l8.748,66.626l-40.943,123.554 L2694.551,1709.273z M2724.179,1800.66c-1.244,0.129-2.494,0.257-3.743,0.385l3.801-3.745L2724.179,1800.66z M2726.324,1767.186 c-0.866,0-1.57,0.692-1.586,1.559l-0.109,6.201l-13.547,27.062c-2.542,0.26-5.097,0.518-7.616,0.784l41.205-124.344l3.701,28.183 l-21.199,60.996C2726.588,1767.197,2726.461,1767.186,2726.324,1767.186z M2752.083,1797.789c-8.277,0.84-16.502,1.692-24.729,2.544 l0.106-6.062l12.37-11.628c3.665,3.21,7.892,6.915,12.493,10.95C2752.205,1794.441,2752.135,1795.8,2752.083,1797.789z M2756.163,1792.719c-5.696-4.995-10.308-9.033-14.006-12.263l14.16-13.311l2.344,26.435 C2757.646,1793.229,2756.787,1792.932,2756.163,1792.719z M2754.449,1707.252l27.818-80.041l8.055,93.351l-2.553,8.863 l-27.067,25.445L2754.449,1707.252z M2766.525,1796.303c-0.368-0.128-0.797-0.276-1.148-0.398c-0.222-0.077-0.383-0.133-0.597-0.207 l-3.125-33.57l22.896-21.522l-12.67,55.171C2770.102,1795.953,2768.302,1796.125,2766.525,1796.303z M2778.138,1795.16 l13.609-58.076l3.707,56.372C2789.674,1794.021,2783.897,1794.588,2778.138,1795.16z M2796.34,1721.131l22.936-79.614l4.12,54.421 l-27.037,25.414L2796.34,1721.131z M2801.357,1792.875l-4.348-63.979l26.962-25.344l6.101,86.571 C2820.477,1791.034,2810.889,1791.946,2801.357,1792.875z M2829.533,1698.325l26.439-24.852l-21.307,92.642L2829.533,1698.325z M2863.983,1786.939l-8.149-2.733c-0.162-0.054-0.333-0.085-0.503-0.085c-0.889,0-1.274,0.008-1.505,3.753 c-5.724,0.53-11.377,1.08-17.076,1.617l24.849-113.995l8.184,110.928C2867.845,1786.594,2865.901,1786.763,2863.983,1786.939z M2866.662,1663.424l25.59-24.054l1.737,27.657l-19.83,97.208L2866.662,1663.424z M2875.797,1785.891l19.617-96.162l5.294,93.916 C2892.396,1784.391,2884.085,1785.138,2875.797,1785.891z M2899.963,1667.429l8.911-43.684l2.941-2.764l3.476,88.733l-9.792,45.87 L2899.963,1667.429z M2907.661,1783.018l8.572-49.249l1.628,41.575l0.02,6.777 C2914.48,1782.421,2911.055,1782.715,2907.661,1783.018z M3005.545,1023.137l-18.092,78.661l-17.232,15.768l36.77-127.634 l7.839-7.165l-6.66,28.956l-1.787,1.906C3003.883,1016.296,3003.714,1020.171,3005.545,1023.137z M2967.56,1306.378l-26.033,21.589 l51.292-223.02l19.467-17.812L2967.56,1306.378z M2972.954,1309.623l33.708-27.951l-19.695,92.263l-31.991,23.815L2972.954,1309.623 z M2961.829,1125.245l-7.483,6.848l32.214-92.688L2961.829,1125.245z M2945.117,1140.537l-27.505,25.168l-0.09-8.864l40.467-122.117 l35.032-32.023L2945.117,1140.537z M2917.336,1138.498l-0.53-52.21l7.368-20.654l24.827-22.695L2917.336,1138.498z M2917.693,1173.684l23.319-21.336l-22.868,65.797L2917.693,1173.684z M2918.323,1235.739l31.917-91.835l8.437-7.719 l-39.957,138.693L2918.323,1235.739z M2918.931,1295.6l48.138-167.094l18.037-16.504L2934,1334.208l-14.554,12.07L2918.931,1295.6z M2919.523,1353.93l12.284-10.186l-11.863,51.581L2919.523,1353.93z M2920.201,1420.691l19.132-83.188l26.332-21.835l-17.829,87.398 l-27.605,20.55L2920.201,1420.691z M2920.306,1430.964l25.75-19.17l-24.714,121.148L2920.306,1430.964z M2921.628,1561.225 l31.568-154.746l31.893-23.743l-43.052,201.681l-19.983,18.783L2921.628,1561.225z M2922.136,1611.279l17.723-16.659l-17.079,80.011 L2922.136,1611.279z M2923.056,1701.806l24.405-114.332l26.786-25.178L2923.6,1755.4L2923.056,1701.806z M3002.044,1641.574 l0.067-0.044l-2.291,102.942l-43.155,14.155c-0.138-0.04-0.236-0.161-0.388-0.161c-0.422,0-0.729,0.019-0.966,0.605l-4.758,1.561 l-1.402,18.145l-0.026,1.733l-0.073-1.097l-6.025,0.514c-6.307,0.538-12.547,1.094-18.812,1.643l58.173-226.927l26.626-25.444 l-9.507,99.85l-3.977,2.587L3002.044,1641.574z M3013.218,1516.195l-7.082,4.527l1.2,1.867l-22.107,21.228l29.392-115.517 L3013.218,1516.195z M3014.816,1415.998l-37.731,135.473l-27.447,25.8l42.672-199.912l23.4-17.421L3014.816,1415.998z M3015.831,1352.448l-21.641,16.11l22.954-98.412L3015.831,1352.448z M3017.253,1263.287l-42.404,37.046l45.361-222.359 L3017.253,1263.287z M3020.309,1071.733l-25.144,23.008l15.645-68.026c0.453,0.079,0.893,0.251,1.351,0.251 c2.112,0,4.223-0.839,5.778-2.502l3.178-3.391L3020.309,1071.733z M3021.494,997.508l-5.256,5.607l5.552-24.138L3021.494,997.508z M3021.962,968.19l-11.82,10.805l12.331-42.801L3021.962,968.19z M3023.336,882.058l-16.953,18.086 c-2.993,3.194-2.831,8.207,0.364,11.196c1.524,1.435,3.473,2.143,5.414,2.143c2.112,0,4.223-0.839,5.778-2.502l4.872-5.198v9.147 l-0.062,3.879l-5.7,14.757l-19.925,57.329l-35.307,32.276l62.265-187.895L3023.336,882.058z M3024.161,830.387l-4.257-1.411 l-67.074,202.412l-24.394,22.299l96.477-270.426L3024.161,830.387z M3025.208,764.741L2919.07,1062.25l-2.485,2.272l-0.482-47.462 l109.72-290.838L3025.208,764.741z M3026.077,710.278l-0.511-0.193l-109.629,290.598l-0.583-57.381l111.49-281.125L3026.077,710.278 z M3026.913,657.925l-4.124-1.634l-107.594,271.302l-0.672-66.173l110.935-262.266l-5.476-2.313l-105.61,249.679l-0.377-37.18 l114.691-262.479L3026.913,657.925z M3028.931,531.453l-115.084,263.381l-0.338-33.314l115.999-266.196L3028.931,531.453z M3029.927,468.966l-117.311,204.785l-0.312-30.707l117.959-195.199L3029.927,468.966z M3030.655,423.391 c-0.758,1.216-0.839,2.781-0.065,4.091l-0.302,18.954l-4.482-2.704L2912.19,631.743l-0.331-32.593l119.02-191.888l-5.02-3.171 l-114.175,177.871l-0.037-3.607l-1.468,0.015c60.601-93.392,102.36-162.352,121.094-193.836L3030.655,423.391z M3416.462,863.707 c0.686-3.779,1.447-7.39,2.182-11.059c-0.911,6.109-1.631,11.751-2.191,16.869L3416.462,863.707z M3494.909,1009.399l-7.827,4.174 l5.584,10.481l2.044-1.09l-9.262,634.745l-0.879,0.043l-25.514,2.146h-40.826l-1.792,3.585l-1.287,0.108l0.164-100.01l1.273,0.064 v-117.232l-1.081-0.108l0.912-556.32c49.458-230.129,79.057,80.57,79.057,80.586L3494.909,1009.399z M4904.893,1551.503 l-26.554-40.214l-0.137-32.182l45.514,70.617L4904.893,1551.503z M4878.448,1537.152l-0.048-11.405l17.564,26.6l-0.923,0.087 L4878.448,1537.152z M4884.438,1553.436l-5.917,0.559l-0.026-6.033L4884.438,1553.436z M4934.026,1548.748l-1.423,0.134 l-54.464-84.627l-0.294-69.346l57.61,47.106L4934.026,1548.748z M4935.591,1431.894l-57.789-47.253l-0.166-39.08l58.11,74.756 L4935.591,1431.894z M4936.041,1398.379l-58.514-78.788l-0.243-57.285l60.005,42.828L4936.041,1398.379z M4937.418,1295.5 l-60.175-42.949l-0.137-32.363l53.278,58.518l7.151,8.067l0.001-0.001L4937.418,1295.5z M4937.693,1274.966l-1.7-1.867 l-58.946-66.496l-0.009-2.137l61.004,44.411L4937.693,1274.966z M4938.173,1239.177l-61.176-44.536l-0.188-44.316l61.739,60.779 L4938.173,1239.177z M4938.85,1188.597l-52.821-53.613l53.097,32.97L4938.85,1188.597z M4939.25,1158.709l-62.57-38.853 l-0.149-35.303l62.958,56.315L4939.25,1158.709z M4939.734,1122.614l-63.286-57.732l-0.207-48.754l64.203,53.502L4939.734,1122.614z M4940.58,1059.428l-64.382-53.652l-0.046-10.902l64.789,37.691L4940.58,1059.428z M4941.061,1023.478l-31.21-18.157l31.231,16.609 L4941.061,1023.478z M4941.201,1013.027l-65.12-34.631l-0.158-37.25l65.645,44.532L4941.201,1013.027z M4941.802,968.166 l-65.962-46.557l-0.095-22.308l66.376,44.956L4941.802,968.166z M4942.335,928.383l-56.726-36.872l56.864,26.575L4942.335,928.383z M4942.589,909.393l-66.933-31.28l-0.087-20.544l67.164,41.146L4942.589,909.393z M4942.855,889.508l-67.326-41.247l-0.008-1.991 l67.393,38.893L4942.855,889.508z M4943.036,876.087l-67.554-38.986l-0.026-6.129l29.647,13.045l38.058,22.713L4943.036,876.087z M4908.726,836.961l-33.329-19.89l-0.079-18.774l68.237,38.991l-0.2,14.91L4908.726,836.961z M4960.711,1452.433l-17.284-14.132 l0.106-7.965L4960.711,1452.433z M4943.771,821.2l-68.499-33.728l-0.158-37.363l68.426,31.978l0.749,0.374L4943.771,821.2z M4949.708,663.741l-3.829-0.052l-1.473,109.976l-69.34-34.67l-0.419-99.063L4949.708,663.741z M4870.603,1554.744l-45.46,4.297 l-13.853-21.304l0.218-51.47l59.036,54.372L4870.603,1554.744z M4870.497,1529.828l-58.945-54.288l0.215-50.705l58.661,88.839 L4870.497,1529.828z M4870.367,1499.215l-58.539-88.655l0.15-35.491l58.25,91.511L4870.367,1499.215z M4870.166,1451.729 l-58.126-91.313l0.082-19.247l57.775,47.241L4870.166,1451.729z M4869.854,1378.143l-57.689-47.17l0.293-69.26l57.214,73.603 L4869.854,1378.143z M4869.618,1322.348l-57.104-73.463l0.015-3.527l57.089,76.87L4869.618,1322.348z M4869.561,1308.865 l-56.977-76.719l0.068-15.971l56.688,40.46L4869.561,1308.865z M4869.298,1246.88l-56.606-40.401l0.207-48.707l21.888,15.934 l34.361,37.741L4869.298,1246.88z M4869.052,1188.858l-21.808-15.876l-34.246-38.633l0.189-44.595l5.668,3.519l50,49.223 L4869.052,1188.858z M4868.739,1114.925l-6.369-3.954l-49.062-49.798l0.14-33.045l55.131,49.314L4868.739,1114.925z M4868.496,1057.628l-54.96-50.137l0.184-43.464l54.572,45.477L4868.496,1057.628z M4868.248,999.153l-35.277-29.397l35.239,20.5 L4868.248,999.153z M4868.142,974.174l-54.343-28.9l0.195-46.14l53.985,36.623L4868.142,974.174z M4867.939,926.166l-53.904-36.568 l0.008-1.912l53.894,38.039L4867.939,926.166z M4867.896,916.001l-53.812-37.982l0.085-19.895l2.524,1.18l51.109,34.616 L4867.896,916.001z M4867.72,874.404l-29.995-14.018l-23.501-15.276l0.106-25.058l53.298,32.652L4867.72,874.404z M4867.588,843.397 l-47.975-29.392l47.968,27.683L4867.588,843.397z M4814.434,795.473l0.024-5.553l35.478,21.173L4814.434,795.473z M4867.542,832.519 l-36.678-21.167l36.656,16.129L4867.542,832.519z M4867.457,812.332l-52.96-31.606l0.061-14.319l35.801,17.627l17.02,9.726 L4867.457,812.332z M4867.335,783.564l-13.285-6.542l-39.442-22.538l0.138-32.588l52.431,24.503L4867.335,783.564z M4867.129,735.026l-52.328-26.163l0.372-87.796l51.542,16.349L4867.129,735.026z M4243.083,416.733l615.823,198.535 l-617.273-195.794L4243.083,416.733z M4748.059,1513.812l0.288-68.783l55.013,94.828l0.983,21.15l-19.3,1.824L4748.059,1513.812z M4775.117,1563.77l-27.227,2.574l0.113-39.27L4775.117,1563.77z M4766.82,1304.127l37.291,58.582l-0.152,35.933l-55.069-83.399 l0.107-25.689L4766.82,1304.127z M4749.039,1279.356l0.013-3.142l4.186,6.575L4749.039,1279.356z M4786.402,1320.139l17.826,14.576 l-0.057,13.34L4786.402,1320.139z M4803.897,1412.916l-0.235,55.357l-55.201-50.84l0.368-87.914L4803.897,1412.916z M4803.617,1479 l-0.191,45.183l-55.014-94.829l0.005-1.195L4803.617,1479z M4804.271,1324.518l-31.452-25.718l-23.706-37.241l0.339-80.902 l55.128,70.92L4804.271,1324.518z M4755.229,1175.191l11.039,7.879l38.385,51.685l-0.017,3.996L4755.229,1175.191z M4787.267,1198.058l17.488,12.481l-0.047,11.002L4787.267,1198.058z M4771.897,1177.362l-22.305-30.033l0.149-35.535l55.262,40.23 l-0.206,48.819L4771.897,1177.362z M4749.781,1102.029l0.09-21.59l55.178,60.605l-0.005,1.216L4749.781,1102.029z M4749.944,1063.217l0.053-12.701l55.29,34.332l-0.172,40.608L4749.944,1063.217z M4750.036,1041.217l0.066-15.629l43.106,42.437 L4750.036,1041.217z M4750.22,997.138l0.106-25.471l55.231,49.402l-0.136,32.098L4750.22,997.138z M4750.371,961.087l0.002-0.491 l27.733,25.299L4750.371,961.087z M4750.418,949.913l0.118-28.114l41.439,24.107l13.852,11.543l-0.182,42.844L4750.418,949.913z M4785.592,930.273l-34.97-29.142l0.188-44.862l55.288,37.506l-0.201,47.295L4785.592,930.273z M4750.85,846.733l0.015-3.641 l55.282,39.019l-0.009,2.128L4750.85,846.733z M4750.905,833.426l0.021-4.857l55.338,25.862l-0.076,18.016L4750.905,833.426z M4750.962,819.839l0.021-5.039l24.049,16.288L4750.962,819.839z M4751.028,804.034l0.095-22.704l55.307,33.883l-0.105,24.764 L4751.028,804.034z M4767.781,774.945l-16.591-9.575l0.055-13.175l55.312,33.01l-0.029,6.789L4767.781,774.945z M4751.284,743.001 l0.032-7.734l55.337,27.248l-0.058,13.496L4751.284,743.001z M4751.387,718.36l0.109-26.022l55.345,25.865l-0.134,31.768 L4751.387,718.36z M4751.559,677.242l0.245-76.275l55.459,17.591l-0.366,86.353L4751.559,677.242z M4682.009,1539.228l0.674-100.561 l57.443,77.746l-0.159,50.679l-29.195,2.76L4682.009,1539.228z M4700.796,1570.795l-9.335,0.882l-9.341-20.766L4700.796,1570.795z M4682.773,1425.451l0.385-57.395l44.093,40.61l13.232,22.808l-0.3,71.678L4682.773,1425.451z M4683.229,1357.353l0.163-24.287 l30.442,52.475L4683.229,1357.353z M4733.502,1403.655l-50.005-86.195l0.543-81.019l7.236,5.917l49.682,75.241l-0.387,92.567 L4733.502,1403.655z M4711.895,1259.216l29.209,23.883l-0.085,20.224L4711.895,1259.216z M4697.21,1236.978l-13.04-19.749 l0.285-42.496l56.729,89.12l-0.038,9.049L4697.21,1236.978z M4684.553,1160.136l0.236-35.22l47.92,34.202l8.865,11.404 l-0.329,78.675L4684.553,1160.136z M4684.854,1115.237l0.117-17.531l30.757,39.568L4684.854,1115.237z M4738.248,1153.346 l-53.19-68.427l0.074-11.097l56.528,76.115l-0.024,5.827L4738.248,1153.346z M4691.961,1069.73l49.883,36.314l-0.128,30.679 L4691.961,1069.73z M4685.257,1055.056l0.299-44.555l1.473,0.915l54.958,60.363l-0.103,24.501L4685.257,1055.056z M4724.833,1034.89 l17.263,10.72l-0.036,8.714L4724.833,1034.89z M4706.45,1014.152l-20.761-23.421l0.19-28.366l56.333,55.457l-0.078,18.488 L4706.45,1014.152z M4685.998,944.798l0.01-1.546l39.524,40.117L4685.998,944.798z M4686.083,932.039l0.119-17.73l56.233,50.3 l-0.103,24.524L4686.083,932.039z M4686.273,903.753l0.011-1.621l56.199,51.267l-0.002,0.63L4686.273,903.753z M4686.355,891.473 l0.033-4.99l40.071,21.31l16.175,9.409l-0.107,25.513L4686.355,891.473z M4730.293,900.865l-43.83-25.498l0.116-17.291 l56.107,46.756l-0.011,2.618L4730.293,900.865z M4686.648,847.82l0.234-34.918l56.029,38.01l-0.183,43.642L4686.648,847.82z M4686.946,803.381l0.031-4.698l2.868,1.341l53.122,37.495l-0.016,3.857L4686.946,803.381z M4730.498,819.022l12.523,5.852 l-0.012,2.978L4730.498,819.022z M4693.822,793.135l-6.775-4.782l0.109-16.387l14.491,9.419l41.437,28.065l-0.028,6.694 L4693.822,793.135z M4705.94,774.726l-18.717-12.676l0.093-13.859l34.472,15.168l21.434,13.131l-0.094,22.409L4705.94,774.726z M4687.448,728.584l0.097-14.405l55.8,33.301l-0.056,13.33L4687.448,728.584z M4687.606,704.999l0.007-1.097l55.798,27.474 l-0.029,6.91L4687.606,704.999z M4687.673,695.101l0.027-4.011l50.929,29.102L4687.673,695.101z M4687.761,682.003l0.13-19.391 l55.7,26.031l-0.105,25.201L4687.761,682.003z M4688.006,645.466l0.433-64.598l55.453,17.589l-0.237,74.833L4688.006,645.466z M4679.418,744.715l-0.081,11.993l-49.641-33.622l-0.001-0.25L4679.418,744.715z M4629.662,714.173l-0.028-7.272l42.052,25.763 L4629.662,714.173z M4679.27,766.84l-0.107,15.949l-49.37-34.846l-0.052-13.296L4679.27,766.84z M4679.081,794.993l-0.021,3.039 l-14.445-9.799L4679.081,794.993z M4653.17,774.137l-23.318-10.897l-0.022-5.577L4653.17,774.137z M4678.996,807.553l-0.226,33.703 l-48.772-40.643l-0.103-26.369L4678.996,807.553z M4678.701,851.511l-0.129,19.265l-41.14-23.933l-7.28-6.641l-0.114-29.244 L4678.701,851.511z M4673.191,879.464l5.304,2.82l-0.014,2.005L4673.191,879.464z M4678.409,894.948l-0.011,1.76l-39.915-35.702 l6.519,3.467L4678.409,894.948z M4678.327,907.265l-0.113,16.787l-47.925-48.644l-0.043-11.151L4678.327,907.265z M4678.139,935.265 l-0.012,1.854l-47.779-46.614l-0.015-3.763L4678.139,935.265z M4678.009,954.617l-0.184,27.244l-47.33-53.393l-0.081-20.705 L4678.009,954.617z M4667.502,989.967l-36.856-22.886l-0.069-17.671L4667.502,989.967z M4677.667,1005.602l-0.294,43.714 l-1.248-0.908l-45.401-61.132l-0.042-10.849L4677.667,1005.602z M4677.28,1063.249l-0.078,11.563l-28.341-36.459l21.616,15.736 L4677.28,1063.249z M4654.641,1032.767l-23.318-16.975l-0.491-0.631l-0.056-14.527L4654.641,1032.767z M4677.116,1087.6 l-0.148,22.009l-45.043-32.149l-0.855-1.344l-0.187-47.993L4677.116,1087.6z M4676.903,1119.288l-0.192,28.531l-33.441-52.535 L4676.903,1119.288z M4676.614,1162.415l-0.289,42.934l-45.018-68.178l-0.179-46.214L4676.614,1162.415z M4676.23,1219.57 l-0.002,0.251l-44.742-36.584l-0.123-31.615L4676.23,1219.57z M4676.16,1229.997l-0.497,73.959l-44.002-75.847l-0.134-34.607 L4676.16,1229.997z M4675.559,1319.563l-0.205,30.536l-43.373-39.947l-0.258-66.15L4675.559,1319.563z M4675.282,1360.802 l-0.363,54.019l-42.756-57.869l-0.14-35.993L4675.282,1360.802z M4674.83,1428.038l-0.69,102.813l-2.002-2.132l-39.649-88.148 l-0.274-70.21L4674.83,1428.038z M4670.958,1545.407l-14.115-21.406l8.609,9.166L4670.958,1545.407z M4655.47,1510.974 l-22.803-24.277l-0.104-26.648L4655.47,1510.974z M4679.541,1572.804l-46.521,4.398l-0.293-75.395L4679.541,1572.804z M4629.587,695.192l-0.061-15.637l50.128,29.916l-0.098,14.559L4629.587,695.192z M4629.476,666.445l-0.034-8.645l50.367,28.78 l-0.031,4.633L4629.476,666.445z M4629.406,648.658l-0.052-13.402l50.64,23.666l-0.125,18.571L4629.406,648.658z M4629.32,626.494 l-0.006-1.516l46.353,23.176L4629.32,626.494z M4629.28,616.104l-0.21-54.067l51.466,16.325l-0.424,63.158L4629.28,616.104z M4621.144,560.793l0.2,51.343l-51.87-25.935l0.164-43.016l55.461,17.592L4621.144,560.793z M4623.688,1214.365l-30.1-51.884 l29.993,24.525L4623.688,1214.365z M4622.814,989.913l0.059,15.007l-50.101-64.452l24.721,15.35L4622.814,989.913z M4615.808,967.191l6.935,4.306l0.02,5.058L4615.808,967.191z M4623.34,1125.105l-55.009-83.309l54.837,39.139L4623.34,1125.105z M4623.101,1063.597l-52.192-81.993l52.021,37.871L4623.101,1063.597z M4622.337,867.338l-30.874-31.337l17.737,9.433l13.097,11.715 L4622.337,867.338z M4621.378,621.01l0.007,1.776l-51.958-24.282l0.013-3.462L4621.378,621.01z M4621.42,631.548l0.049,12.574 l-52.102-29.772l0.027-7.116L4621.42,631.548z M4621.504,653.264l0.036,9.273l-29.05-14.304l-23.2-13.846l0.042-10.936 L4621.504,653.264z M4588.774,655.234l32.814,19.583l0.062,15.793l-52.458-30.274l0.057-14.717L4588.774,655.234z M4621.694,702.037 l0.033,8.645l-29.534-12.995l-23.085-15.635l0.046-12.202L4621.694,702.037z M4573.606,698.158l48.194,31.327l0.05,12.851 l-52.831-37.289l0.035-8.892L4573.606,698.158z M4621.888,752.058l0.028,7.208l-52.966-35.932l0.033-8.618L4621.888,752.058z M4577.852,738.938l-8.945-4.18l0.007-1.883L4577.852,738.938z M4619.295,767.053l2.659,1.803l0.098,25.135l-53.202-44.334 l0.023-6.168L4619.295,767.053z M4622.092,804.337l0.111,28.615l-53.484-48.791l0.092-24.225L4622.092,804.337z M4604.983,827.966 l-9.833-5.72l-26.487-23.692l0.014-3.707L4604.983,827.966z M4622.381,878.672l0.015,4.077l-53.854-52.541l0.024-6.158 L4622.381,878.672z M4622.464,899.936l0.076,19.557l-54.105-61.035l0.044-11.666L4622.464,899.936z M4622.623,940.673l0.083,21.478 l-19.748-12.262l-34.694-46.715l0.084-22.113L4622.623,940.673z M4584.643,938.516l-16.475-10.23l0.045-11.892L4584.643,938.516z M4608.229,998.979L4568.01,969.7l0.085-22.351L4608.229,998.979z M4614.719,1065.18l-46.945-33.506l0.152-40.004L4614.719,1065.18z M4623.396,1139.556l0.145,37.185l-41.247-33.726l-14.848-25.594l0.237-62.239L4623.396,1139.556z M4576.165,1148.234l47.585,82.023 l0.282,72.574l-57.092-52.582l0.417-109.217L4576.165,1148.234z M4624.074,1313.639l0.126,32.537l-57.331-77.594l0.029-7.601 L4624.074,1313.639z M4624.252,1359.583l0.246,63.225l-57.727-128.34l0.048-12.618L4624.252,1359.583z M4624.574,1442.286 l0.128,32.97l-58.284-88.392l0.28-73.249L4624.574,1442.286z M4599.429,1451.309l-33.122-35.263l0.057-14.883L4599.429,1451.309z M4624.759,1489.842l0.343,88.109l-59.376,5.613l0.537-155.999L4624.759,1489.842z M4552.188,1262.048l6.751,9.137l-0.022,5.822 L4552.188,1262.048z M4558.844,1296.156l-0.301,78.766l-204.242-309.745l164.088,151.126l11.596,15.695L4558.844,1296.156z M4549.229,1244.707l9.776,9.004l-0.016,4.206L4549.229,1244.707z M4532.693,1218.708l-75.43-167.695l102.197,83.563l-0.414,108.403 L4532.693,1218.708z M4514.651,1197.907l-186.587-252.536l115.46,94.408L4514.651,1197.907z M4449.984,1034.829l-51.344-114.146 l77.675,55.439l83.203,143.419l-0.019,4.836L4449.984,1034.829z M4504.203,604.763l-133.135-65.554l-60.648-37.155l-0.044-12.965 L4504.203,604.763z M4310.336,477.421l-0.006-1.966l18.858,10.776L4310.336,477.421z M4466.504,642.384l-48.038-21.137 l-19.953-13.536l-87.983-73.319l-0.007-2.104L4466.504,642.384z M4392.219,580.256l140.199,91.129l-29.442-12.954L4392.219,580.256z M4534.648,832.278l-46.76-51.359l2.332,1.24L4534.648,832.278z M4490.473,770.509l1.269,0.738l6.086,5.991l-2.629-1.398 L4490.473,770.509z M4397.627,663.459l17.024,7.956l29.771,26.63l84.285,85.549l-19.677-11.447L4397.627,663.459z M4475.182,765.195 l-3.122-1.66l-7.234-7.946l3.801,2.211L4475.182,765.195z M4471.142,908.975l67.102,101.622l-55.929-39.918l-53.8-92.736 L4471.142,908.975z M4418.679,860.987l-14.693-25.327l31.775,19.73l22.928,34.724L4418.679,860.987z M4451.839,865.375 l59.026,36.652l30.928,48.587l-64.837-47.201L4451.839,865.375z M4463.229,812.443l76.154,97.969l-22.807-14.162L4463.229,812.443z M4501.052,886.611l-59.647-37.038l-95.023-143.908l57.697,30.683l7.313,9.409L4501.052,886.611z M4362.621,626.28l-3.107-4.184 l34.66,31.002l-13.282-6.207L4362.621,626.28z M4377.786,659.988l-8.112-8.91l5.56,5.473L4377.786,659.988z M4363.729,597.162 l-14.894-13.586l29.503,20.014L4363.729,597.162z M4356.307,608.608l-13.336-11.929l2.795,1.23L4356.307,608.608z M4366.062,674.545 l-31.542-40.578l8.131,3.8L4366.062,674.545z M4364.118,656.743l60.203,66.125l-28.763-16.732L4364.118,656.743z M4392.196,721.063 l-54.939-29.218l-11.225-16.999l55.202,32.114L4392.196,721.063z M4404.817,720.679l31.769,18.481l6.762,9.105l-31.703-16.86 L4404.817,720.679z M4431.343,718.813l-14.068-18.942l34.589,39.02l-4.766-2.772L4431.343,718.813z M4425.846,667.9l-32.584-33.073 l40.111,36.59L4425.846,667.9z M4382.045,613.871l24.339,10.709l93.51,77.926l-42.418-19.824L4382.045,613.871z M4331.97,562.569 l-21.393-14.513l-0.011-3.324L4331.97,562.569z M4332.914,622.469l1.813,2.847l-10.885-5.087l-13.076-16.822l-0.018-5.285 L4332.914,622.469z M4318.774,626.608l49.464,63.634l-52.025-30.266l-5.282-7.999l-0.099-29.081L4318.774,626.608z M4322.637,684.071l-9.537-5.072l-2.088-3.599l-0.031-8.982L4322.637,684.071z M4331.762,697.89l93.564,141.699l-29.795-18.501 l-74.909-129.122L4331.762,697.89z M4402.827,849.447l-53.868-39.215l-5.455-12.127l46.167,28.668L4402.827,849.447z M4412.663,866.402l54.023,93.122l-74.489-53.165l-36.688-81.564L4412.663,866.402z M4491.944,987.276l58.445,41.714l9.42,14.266 l-0.231,60.601L4491.944,987.276z M4556.186,1023.402l-66.776-101.129l64.002,46.593l6.642,10.434l-0.178,46.735L4556.186,1023.402z M4559.29,963.352l-32.9-51.685l27.002,16.767l6.822,8.776l-0.102,26.74L4559.29,963.352z M4558.763,922.446l-137.594-177.009 l33.186,17.648l105.979,142.699l-0.067,17.596L4558.763,922.446z M4478.769,782.671l81.693,89.727l-0.077,20.166L4478.769,782.671z M4510.236,792.804l7.401,3.936l42.951,42.283l-0.04,10.538L4510.236,792.804z M4532.283,794.832l14.62,8.505l-12.975-6.9 L4532.283,794.832z M4554.131,816.148l6.531,3.473l-0.011,2.887L4554.131,816.148z M4554.765,798.753l-16.674-16.925l22.639,20.25 l0,0.144L4554.765,798.753z M4449.975,692.391l-8.158-8.28l11.215,5.241l107.752,98.295l-0.015,3.847L4449.975,692.391z M4477.137,700.617l46.656,21.804l37.123,30.936l-0.09,23.604L4477.137,700.617z M4551.967,735.588l9,4.206l-0.013,3.283 L4551.967,735.588z M4528.068,715.672l-67.813-56.51l100.759,68.353l-0.014,3.547L4528.068,715.672z M4454.75,645.861l44.294,19.49 l62.041,43.79l-0.034,8.835L4454.75,645.861z M4535.515,681.398l25.632,11.278l-0.026,6.795L4535.515,681.398z M4443.176,596.759 l115.09,66.42l2.986,1.829l-0.044,11.693L4443.176,596.759z M4444.494,584.193l116.847,57.534l-0.053,14.018L4444.494,584.193z M4359.158,508.984l54.07,25.269l148.2,84.683l-0.042,10.736L4359.158,508.984z M4500.87,575.211l60.618,28.329l-0.024,6.295 L4500.87,575.211z M4416.829,527.189l-106.531-60.873l-0.018-5.396l4.311,1.368l-2.133,4.266l249.077,124.536l-0.014,3.72 L4416.829,527.189z M4333.87,468.402l227.857,72.274l-0.158,41.573L4333.87,468.402z M4222.94,1479.916l-4.791-246.217 l36.189,46.366l-2.468,245.904L4222.94,1479.916z M4251.723,1540.635l-0.729,72.679l-25.412,2.402l-2.342-120.423L4251.723,1540.635 z M4217.893,1220.488l-1.322-67.939l38.104,93.928l-0.209,20.87L4217.893,1220.488z M4216.14,1130.436l-1.242-63.817l2.871,0.383 l1.216-9.166l37.186,39.589l-0.441,43.958l-33.389-76.006l-7.255,3.187l40.45,92.082l-0.655,65.287L4216.14,1130.436z M4256.547,1059.834l-0.263,26.148l-41.876-44.585l-1.188-61.061L4256.547,1059.834z M4213.004,963.379l-0.113,0.062l-0.565-29.024 l45.063,41.503l-0.679,67.651L4213.004,963.379z M4255.622,1546.841l39.158,62.334l-39.821,3.764L4255.622,1546.841z M4255.769,1532.174l2.479-247.099l25.165,32.243l26.048,64.211l0.772,226.185l-6.617,0.625L4255.769,1532.174z M4246.344,554.162 l15.21,6.693l-0.162,16.097L4246.344,554.162z M4249.766,585.612l-2.332-1.09l-5.865-13.039L4249.766,585.612z M4306.361,473.187 l0.008,2.38l-14.776-6.906l-25.004-14.922l0.033-3.259L4306.361,473.187z M4289.096,454.201l17.219,5.462l0.015,4.386 L4289.096,454.201z M4287.954,475.707l18.454,11.013l0.044,12.903l-40.077-24.553l0.095-9.404L4287.954,475.707z M4293.243,532.862 l-5.002-6.735l18.354,15.295l0.012,3.632L4293.243,532.862z M4306.773,593.757l0.016,4.535l-20.714-26.647l0.944,0.415 L4306.773,593.757z M4294.065,520.672l12.489,8.815l0.005,1.597L4294.065,520.672z M4270.838,564.94l35.995,46.306l0.004,1.037 l-31.986-14.948l-9.557-14.474l0.204-20.271L4270.838,564.94z M4299.857,671.956l-17.212-9.154l-8.04-17.874l14.449,8.406 L4299.857,671.956z M4269.29,603.482l0.194,0.091l31.327,47.443l-5.955-3.464L4269.29,603.482z M4307.083,684.766l0.111,32.616 l-19.248-42.793L4307.083,684.766z M4302.875,661.375l4.136,2.406l0.017,4.751L4302.875,661.375z M4283.204,609.985l23.662,11.058 l0.085,24.906L4283.204,609.985z M4281.036,639.512l-12.009-6.986l-4.139-9.201l0.115-11.449L4281.036,639.512z M4271.227,656.731 l-6.64-3.531l0.11-10.984L4271.227,656.731z M4276.528,668.516l30.733,68.325l0.101,29.498l-43.637-27.096l0.773-77.124 L4276.528,668.516z M4307.394,775.682l0.015,4.301l-40.094-29.189L4307.394,775.682z M4307.442,789.802l0.192,56.202l-44.661-31.876 l0.565-56.288L4307.442,789.802z M4307.667,855.752l0.212,62.301l-45.333-61.356l0.33-32.913L4307.667,855.752z M4284.075,899.171 l-21.776-17.806l0.115-11.511L4284.075,899.171z M4303.172,925.018l4.753,6.433l0.218,63.724l-46.282-70.19l0.336-33.471 L4303.172,925.018z M4308.192,1009.63l0.008,2.318l-46.779-43.084l0.298-29.714L4308.192,1009.63z M4256.727,597.612l4.382,7.553 l-0.096,9.547l-8.598-19.115L4256.727,597.612z M4261.313,979.534l46.923,43.217l0.396,116.089l-48.034-88.133L4261.313,979.534z M4290.862,1122.794l-30.658-32.64l0.233-23.184L4290.862,1122.794z M4305.876,1150.345l2.814,5.161l0.366,107.27l-49.455-112.579 l0.488-48.601L4305.876,1150.345z M4309.124,1282.633l0.188,54.987l-18.995-24.338l-31.57-77.822l0.662-66L4309.124,1282.633z M4309.356,1350.558l0.033,9.74l-8.192-20.193L4309.356,1350.558z M4272.532,1290.496l-14.156-18.138l0.164-16.353 L4272.532,1290.496z M4232.715,436.317l24.55,7.787l-0.443,0.776l5.862,3.35l-0.032,3.16l-17.2-10.265l-2.785,4.672l-12.001-5.609 L4232.715,436.317z M4226.954,447.2l35.574,16.625l-0.088,8.834l-26.253-16.083l-2.09,3.246l-3.278,2.258l2.996,4.707l-13.197-7.616 L4226.954,447.2z M4214.368,470.972l26.276,29.642l-21.22-14.396l-1.589,1.832l-8.249-8.048L4214.368,470.972z M4203.702,491.119 l2.02-3.815l11.45,11.17l-1.235,1.256l17.947,17.668l26.736,34.395l-22.325-9.823l-17.787-26.937l-1.829,1.208l-8.814-15.192 l-5.91,3.033L4203.702,491.119z M4204.017,507.31l10.98,24.41l-10.596-4.662L4204.017,507.31z M4204.571,535.782l15.277,6.722 l16.587,36.877l-31.3-14.628L4204.571,535.782z M4205.306,573.581l36.11,16.875l15.844,35.225l-51.524-29.974L4205.306,573.581z M4205.917,604.97l54.875,31.923l-0.143,14.212l-54.397-28.928L4205.917,604.97z M4206.428,631.236l54.131,28.787l-0.771,76.775 l-51.934-32.249L4206.428,631.236z M4208.105,717.485l51.5,37.492l-0.565,56.343l-49.801-35.544L4208.105,717.485z M4209.432,785.637l49.512,35.339l-0.305,30.431l-42.842-57.984l-6.125,4.527L4209.432,785.637z M4209.682,798.483l48.825,66.082 l-0.137,13.588l-47.9-39.166L4209.682,798.483z M4210.672,849.384l47.597,38.918l-0.309,30.767l-42.078-63.814l-5.031,3.323 L4210.672,849.384z M4257.817,933.233l-0.321,32.016l-45.383-41.799l-1.194-61.341L4257.817,933.233z M4213.89,1641.867 l-2.959-8.878l14.979-0.384l-0.02-1.006l78.325-7.404l6.84,10.887L4213.89,1641.867z M4311.066,691.276l70.152,120.924 l-43.532-27.031l-26.501-58.916L4311.066,691.276z M4311.252,745.713l14.381,31.972l-14.302-8.881L4311.252,745.713z M4311.363,778.146l20.088,12.474l4.592,10.208l-24.665-17.956L4311.363,778.146z M4311.412,792.692l31.182,22.7l36.81,81.836 l-67.8-48.391L4311.412,792.692z M4311.637,858.585l74.209,52.966l50.398,112.044l-124.392-101.711L4311.637,858.585z M4311.904,936.836l181.582,245.762l-157.267-144.845l-24.095-36.54L4311.904,936.836z M4312.209,1026.41l17.945,16.528 l228.333,346.283l-0.07,18.427l-245.801-261.691L4312.209,1026.41z M4558.374,1419.166l-0.571,165.146l-6.068,0.574 l-224.353-411.645L4558.374,1419.166z M4312.675,1162.819l230.475,422.878l-37.457,3.541l-121.757-156.003l-70.89-161.372 L4312.675,1162.819z M4313.383,1370.142l-0.049-14.488l63.749,81.678l69.197,157.522l-40.195,3.8L4313.383,1370.142z M4397.859,1599.431l-83.667,7.909l-0.737-215.966L4397.859,1599.431z M4313.289,1342.717l-0.174-50.998l51.023,116.148 L4313.289,1342.717z M4396.88,1462.7l99.451,127.423l-41.742,3.946L4396.88,1462.7z M4320.023,1634.456l-6.971-11.096 l194.845-18.418l12.136,15.549L4320.023,1634.456z M4529.566,1619.825l-12.307-15.769l34.138-3.227l10.404,16.745L4529.566,1619.825 z M4559.982,1600.017l154.541-14.608l18.952,20.177l-162.78,11.366L4559.982,1600.017z M4665.125,1886.603l76.929-11.112 l7.091,3.296L4665.125,1886.603z M4750.808,1878.632l2.196-4.723l93.812-13.551l8.451-0.787l0.664,9.282L4750.808,1878.632z M4926.241,1862.311l-62.418,5.806l-0.664-9.283l60.631-5.65l2.45,0.811V1862.311z M4743.669,1604.875l-19.169-20.409l175.605-16.6 l26.326,24.247L4743.669,1604.875z M4934.162,1861.574v-4.958l11.701,3.87L4934.162,1861.574z M4972.89,1857.972l-26.529,2.468 l2.428-7.328l-5.319-1.76l29.421-2.741V1857.972z"/> </svg>