<?xml version="1.0" standalone="no"?>
<!DOCTYPE svg PUBLIC "-//W3C//DTD SVG 20010904//EN"
 "http://www.w3.org/TR/2001/REC-SVG-20010904/DTD/svg10.dtd">
<svg version="1.0" xmlns="http://www.w3.org/2000/svg"
 width="640.000000pt" height="1280.000000pt" viewBox="0 0 640.000000 1280.000000"
 preserveAspectRatio="xMidYMid meet">
<metadata>
Created by potrace 1.15, written by Peter Selinger 2001-2017
</metadata>
<g transform="translate(0.000000,1280.000000) scale(0.100000,-0.100000)"
fill="#000000" stroke="none">
<path d="M2379 12650 c-4 -97 -10 -155 -20 -175 -9 -18 -53 -56 -119 -102
-118 -81 -186 -149 -221 -220 -21 -42 -24 -62 -24 -163 1 -151 12 -178 90
-214 182 -83 380 57 391 277 3 54 2 65 -5 44 -11 -33 -58 -97 -72 -97 -5 0 -9
7 -9 15 0 8 -13 43 -29 77 l-30 61 35 40 c104 122 119 287 46 512 l-29 90 -4
-145z"/>
<path d="M2055 11659 c-27 -5 -71 -16 -96 -25 l-45 -14 0 -60 c1 -33 1 -60 2
-60 0 0 20 9 43 21 24 11 80 27 125 36 100 19 196 12 299 -21 42 -13 79 -21
82 -18 3 3 5 19 5 37 0 17 5 36 12 43 39 39 -295 88 -427 61z"/>
<path d="M2085 11519 c-115 -17 -215 -62 -215 -98 0 -24 39 -56 86 -71 28 -10
43 -9 82 5 94 32 199 30 288 -6 46 -18 100 -4 147 41 41 38 41 39 23 59 -27
30 -112 59 -208 71 -93 11 -118 11 -203 -1z"/>
<path d="M2087 11303 l-38 -4 7 -45 c5 -33 2 -49 -8 -62 -24 -28 -29 -52 -12
-59 24 -9 55 -79 48 -108 -4 -16 0 -35 11 -51 15 -24 20 -25 72 -18 l56 7 -8
-54 c-5 -30 -10 -94 -11 -144 -1 -49 -9 -118 -18 -152 -16 -63 -14 -85 12
-115 20 -24 27 -23 57 9 14 15 25 25 25 21 0 -4 9 -53 20 -110 12 -57 27 -143
34 -191 12 -82 12 -91 -6 -125 -11 -20 -32 -49 -49 -64 -24 -23 -29 -35 -29
-76 0 -27 8 -64 19 -85 24 -48 27 -61 61 -262 36 -212 41 -234 51 -241 4 -2
13 15 19 38 6 24 18 66 26 93 8 28 21 88 29 134 8 46 16 86 19 88 4 4 139 -21
179 -33 9 -3 17 -11 17 -18 0 -26 -27 -44 -76 -51 -49 -6 -52 -5 -71 24 l-19
31 0 -114 c0 -110 -1 -117 -33 -178 -39 -74 -96 -156 -203 -292 -43 -54 -78
-103 -78 -107 0 -14 48 -22 88 -14 168 30 331 215 340 385 4 59 -9 129 -34
186 -3 6 9 9 31 6 28 -3 35 -8 35 -26 0 -26 29 -116 37 -116 4 0 30 23 59 50
29 28 62 50 73 50 11 0 52 12 91 26 l71 27 37 -30 c20 -16 47 -35 60 -42 20
-11 22 -19 22 -86 0 -57 -3 -75 -14 -75 -7 0 -16 -14 -20 -31 -3 -16 -13 -37
-22 -46 -14 -14 -13 -19 15 -47 34 -35 38 -61 16 -90 -22 -30 -19 -73 6 -87
28 -15 105 -6 128 15 25 23 67 103 111 210 31 76 41 92 61 94 38 6 42 16 25
73 -20 67 -20 105 0 113 9 3 61 7 117 7 56 1 147 4 202 8 l100 6 -207 40 -208
40 0 26 c0 25 9 31 126 79 70 28 152 61 183 72 31 12 61 26 66 31 7 7 4 8 -8
3 -11 -3 -76 -15 -145 -26 -70 -11 -154 -24 -187 -30 -33 -5 -63 -10 -67 -10
-3 0 -15 15 -26 34 l-20 33 142 149 c77 81 134 144 126 139 -8 -5 -89 -60
-179 -123 l-164 -113 -58 18 -58 18 4 195 c5 216 7 216 -49 5 -51 -190 -57
-205 -73 -205 -9 0 -39 -7 -68 -16 l-52 -17 -138 139 c-75 77 -131 128 -123
114 8 -14 49 -84 91 -156 42 -72 77 -136 77 -142 0 -6 -15 -22 -33 -36 -32
-25 -40 -26 -168 -26 l-135 0 -17 133 c-10 72 -22 157 -27 187 -55 356 -64
470 -49 650 10 125 10 156 -4 228 -9 46 -28 108 -42 139 -14 30 -25 72 -25 92
0 21 -6 44 -12 53 -25 31 -100 42 -211 31z"/>
<path d="M2132 9584 c-43 -30 -112 -194 -158 -374 -27 -108 -30 -176 -10 -224
14 -34 72 -106 86 -106 4 0 12 35 16 78 l9 77 37 -3 c45 -4 101 21 117 52 10
18 10 29 -1 57 -25 59 -38 140 -48 293 -5 82 -13 153 -18 158 -4 4 -18 1 -30
-8z"/>
<path d="M3297 9158 c-58 -135 -67 -178 -51 -257 5 -24 12 -31 30 -31 21 0 24
-5 24 -39 0 -66 4 -70 73 -64 34 3 63 7 64 8 2 0 -8 46 -21 101 -37 157 -38
160 -16 179 26 23 25 45 -5 133 -14 41 -25 80 -25 88 0 36 -19 4 -73 -118z"/>
<path d="M2542 9078 c-97 -134 -135 -207 -162 -307 -12 -40 -27 -86 -36 -102
-26 -51 -7 -31 70 75 63 86 88 133 146 272 38 93 68 170 66 172 -2 2 -40 -48
-84 -110z"/>
<path d="M2705 9147 c8 -39 -9 -282 -26 -392 -7 -38 -49 -182 -95 -319 -46
-137 -84 -251 -84 -253 0 -13 134 105 141 124 5 13 9 56 9 95 0 59 5 79 31
128 47 88 62 98 215 141 76 22 139 41 142 43 2 3 7 21 12 41 6 27 5 39 -7 48
-90 72 -177 172 -255 293 -15 23 -41 52 -58 64 l-31 22 6 -35z"/>
<path d="M2392 8966 c-18 -13 -93 -52 -166 -87 -129 -61 -133 -64 -159 -113
-15 -28 -31 -68 -36 -89 -9 -35 -8 -39 15 -48 67 -25 98 -1 269 206 54 66 105
128 113 138 21 24 3 21 -36 -7z"/>
<path d="M2572 8822 c-147 -207 -344 -445 -415 -500 -13 -10 -15 -17 -7 -32 8
-15 7 -26 -4 -42 -15 -25 -33 -118 -22 -118 32 0 197 115 264 183 53 53 56 60
153 322 55 147 98 269 96 271 -1 2 -31 -36 -65 -84z"/>
<path d="M3061 8489 c-97 -100 -227 -223 -295 -277 -216 -173 -306 -284 -482
-596 -133 -236 -154 -289 -154 -390 1 -125 38 -177 128 -176 73 1 83 15 109
146 68 346 134 618 153 629 6 3 15 -5 21 -19 15 -33 -2 -123 -42 -216 -17 -41
-29 -86 -29 -112 0 -43 1 -41 141 170 242 370 416 646 482 769 35 65 83 148
105 186 23 37 41 67 39 67 -1 -1 -80 -82 -176 -181z"/>
<path d="M3470 8586 c0 -4 9 -35 20 -69 110 -351 110 -352 110 -476 0 -65 3
-145 6 -178 l7 -61 51 39 c67 51 88 50 128 -6 18 -25 35 -45 39 -45 4 0 12
-14 18 -32 16 -46 22 -29 12 33 -5 30 -15 88 -21 129 -31 189 -124 380 -278
571 -60 75 -92 108 -92 95z"/>
<path d="M3381 8515 c-132 -282 -477 -1113 -505 -1215 -78 -278 -161 -491
-256 -656 -175 -304 -218 -450 -190 -639 26 -175 29 -156 -50 -294 -40 -68
-78 -142 -86 -164 -16 -45 -19 -163 -4 -172 5 -3 73 34 152 82 159 98 185 124
298 305 88 140 240 445 273 549 15 46 34 129 42 184 23 147 60 296 127 510 75
241 162 581 202 790 9 48 20 203 27 390 6 171 12 312 14 315 2 3 0 23 -4 45
l-8 40 -32 -70z"/>
<path d="M2330 8194 c-143 -125 -145 -128 -134 -166 5 -19 19 -37 32 -43 13
-5 25 -21 28 -35 13 -56 42 -125 48 -110 19 53 122 430 117 429 -3 0 -44 -34
-91 -75z"/>
<path d="M4184 8109 c-6 -37 -9 -40 -33 -35 -23 5 -31 -2 -65 -52 -21 -31 -76
-111 -121 -177 l-82 -120 -6 -178 c-7 -178 -7 -178 17 -210 43 -57 61 -119
121 -423 4 -17 16 -23 65 -31 l61 -10 26 46 c115 203 147 250 194 286 102 78
329 340 329 381 0 30 -29 87 -68 133 l-30 35 40 49 c37 48 38 50 21 69 -17 19
-17 21 10 44 l28 24 -23 9 c-13 5 -108 45 -213 89 -104 44 -207 87 -227 95
l-38 16 -6 -40z"/>
<path d="M2950 7822 c-232 -351 -581 -916 -670 -1087 -56 -106 -60 -120 -60
-180 0 -82 25 -115 88 -115 52 0 74 21 102 95 23 58 183 430 444 1029 69 159
125 290 123 292 -1 1 -13 -14 -27 -34z"/>
<path d="M3750 7614 c-6 -14 -10 -30 -10 -36 0 -6 -9 -50 -21 -99 -18 -77 -24
-91 -50 -106 -17 -10 -45 -40 -64 -68 l-33 -50 -6 -610 c-3 -335 -9 -766 -13
-957 -5 -295 -4 -348 8 -348 33 0 394 212 517 303 46 35 52 43 52 76 0 89 -38
310 -155 897 -41 205 -88 452 -105 550 -49 284 -92 474 -106 474 -2 0 -9 -12
-14 -26z"/>
<path d="M3447 6438 c-29 -49 -74 -157 -146 -343 -60 -159 -58 -150 -71 -260
-13 -111 -43 -233 -75 -303 -14 -29 -63 -111 -111 -182 -88 -132 -213 -368
-298 -565 -54 -122 -176 -415 -176 -420 0 -7 202 209 280 301 107 124 169 166
352 238 184 73 219 93 230 131 4 17 12 125 18 240 12 258 33 1195 27 1202 -3
2 -16 -15 -30 -39z"/>
<path d="M3223 6198 c-15 -24 -41 -69 -58 -102 -86 -167 -375 -441 -762 -720
-108 -78 -122 -91 -146 -143 -53 -113 -84 -284 -93 -513 -6 -137 -5 -157 10
-169 24 -20 19 -61 -14 -111 -36 -54 -39 -102 -9 -124 12 -8 18 -19 15 -25
-11 -18 13 -90 34 -101 41 -22 227 69 302 147 30 30 42 55 58 114 20 79 63
200 150 429 28 73 69 188 91 255 46 136 68 178 140 267 66 81 117 188 184 390
64 194 137 440 131 445 -2 3 -17 -15 -33 -39z"/>
<path d="M3767 5113 c-24 -48 -34 -105 -67 -388 -21 -182 -41 -414 -50 -574
-5 -91 -14 -169 -18 -173 -5 -5 -42 22 -85 63 -59 54 -77 77 -77 98 0 14 13
89 29 166 60 285 130 642 137 693 4 32 3 52 -3 52 -6 0 -52 -30 -104 -66 -98
-70 -156 -104 -175 -104 -28 0 -30 -123 -9 -440 l16 -225 -38 -33 c-21 -19
-55 -47 -75 -64 l-38 -30 0 64 c0 61 15 218 45 482 8 71 13 132 10 135 -17 16
-165 -226 -191 -312 -10 -31 -21 -57 -25 -57 -17 0 -39 46 -39 80 0 20 9 78
20 129 12 52 18 96 16 99 -8 7 -92 -26 -104 -41 -6 -7 -29 -86 -52 -177 -45
-181 -90 -318 -115 -356 -32 -49 -40 -25 -43 134 -2 122 -5 152 -16 152 -8 0
-37 -18 -65 -40 l-51 -40 0 -188 c0 -133 -4 -192 -12 -200 -14 -14 -54 -16
-63 -3 -3 6 9 49 26 98 39 108 46 151 27 158 -9 4 -13 17 -10 39 2 19 -1 37
-7 40 -24 15 -48 -18 -93 -126 -68 -161 -75 -171 -146 -196 -58 -22 -112 -56
-112 -71 0 -5 129 -7 288 -5 1050 15 1636 25 1640 29 4 3 -5 155 -28 480 -6
72 -15 202 -21 290 -6 88 -12 162 -14 164 -10 10 -59 -13 -114 -54 -33 -25
-63 -45 -66 -45 -11 0 -4 37 13 65 18 29 18 33 -6 135 -14 58 -27 107 -29 110
-2 2 -12 -1 -22 -7 -16 -10 -18 -7 -19 24 -3 63 -41 84 -65 36z"/>
<path d="M2518 3823 l-466 -3 -6 -28 c-3 -15 -8 -67 -11 -117 l-7 -90 484 2
c265 2 776 6 1134 9 l650 6 -16 106 c-14 98 -17 107 -40 113 -24 7 -724 7
-1722 2z"/>
<path d="M1820 3210 l0 -220 1305 0 1305 0 -2 218 -3 217 -1302 3 -1303 2 0
-220z"/>
<path d="M1690 2640 l0 -230 1510 0 1510 0 0 230 0 230 -1510 0 -1510 0 0
-230z"/>
<path d="M1880 1115 l0 -1115 1285 0 1285 0 0 1115 0 1115 -1285 0 -1285 0 0
-1115z m1000 638 l0 -313 -170 0 -170 0 0 308 c0 170 2 311 4 313 2 2 79 4
170 4 l166 0 0 -312z m493 -2 l2 -311 -167 0 -168 0 0 313 0 312 165 -2 166
-2 2 -310z m535 0 l2 -311 -170 0 -170 0 0 308 c0 170 2 311 4 313 2 2 78 3
168 2 l163 -2 3 -310z"/>
</g>
</svg>
